<svg width="72" height="72" viewBox="0 0 72 72" fill="none" xmlns="http://www.w3.org/2000/svg">
<circle cx="36" cy="36" r="36" fill="#001025"/>
<g clip-path="url(#clip0_130_294)">
<path d="M49.2096 28.3691C49.0051 28.5286 45.3955 30.5738 45.3955 35.1214C45.3955 40.3815 49.9886 42.2424 50.1261 42.2885C50.105 42.4019 49.3964 44.837 47.7044 47.3182C46.1957 49.5016 44.62 51.6815 42.223 51.6815C39.8259 51.6815 39.209 50.2814 36.4419 50.2814C33.7452 50.2814 32.7864 51.7276 30.5938 51.7276C28.4013 51.7276 26.8714 49.7072 25.1124 47.226C23.0749 44.3124 21.4287 39.786 21.4287 35.4901C21.4287 28.5995 25.8844 24.9451 30.2695 24.9451C32.5996 24.9451 34.5419 26.4834 36.0048 26.4834C37.3972 26.4834 39.5686 24.8529 42.2194 24.8529C43.2241 24.8529 46.8337 24.9451 49.2096 28.3691ZM40.961 21.9358C42.0573 20.6278 42.8328 18.813 42.8328 16.9982C42.8328 16.7466 42.8116 16.4913 42.7658 16.2858C40.9821 16.3531 38.8601 17.4803 37.5805 18.9725C36.5758 20.121 35.6382 21.9358 35.6382 23.7754C35.6382 24.0518 35.684 24.3283 35.7051 24.4169C35.8179 24.4382 36.0013 24.463 36.1846 24.463C37.7849 24.463 39.7977 23.3855 40.961 21.9358Z" fill="white"/>
</g>
<defs>
<clipPath id="clip0_130_294">
<rect width="28.6939" height="35.4454" fill="white" transform="translate(21.4287 16.2858)"/>
</clipPath>
</defs>
</svg>
