<svg width="72" height="72" viewBox="0 0 72 72" fill="none" xmlns="http://www.w3.org/2000/svg">
<circle cx="36" cy="36" r="35" fill="white" stroke="#1E1C59" stroke-width="2"/>
<g clip-path="url(#clip0_130_371)">
<path d="M57.1176 33.7464C57.0894 32.571 56.5043 31.4467 55.5027 30.9203C55.8988 30.3147 56.2769 29.7117 56.6347 29.1266C57.0128 29.8906 57.5724 30.7159 57.5724 31.8019C57.5724 32.4918 57.4115 33.1689 57.1176 33.7464ZM56.1492 34.9192C55.725 35.2284 55.2216 35.4098 54.6569 35.4098C53.9031 35.4098 53.2618 35.1006 52.8632 34.5666C53.6195 33.6467 54.3682 32.6144 55.0734 31.5668C55.8962 32.0293 56.2309 33.0974 56.2309 34.0632C56.2309 34.3622 56.2054 34.6484 56.1492 34.9192ZM52.4952 33.7592C52.4543 33.5778 52.4338 33.3835 52.4338 33.1817C52.4338 32.157 53.1621 31.3317 54.1254 31.3317C54.1893 31.3317 54.2531 31.3338 54.3119 31.3391C53.6986 32.2079 53.0854 33.0332 52.4951 33.7589L52.4952 33.7592ZM41.2599 38.3915C40.9302 38.3915 40.7795 38.1232 40.7795 37.6326C40.7795 36.0458 42.19 32.7189 44.4539 30.7642C44.7043 31.1781 44.8167 31.7045 44.8193 32.2539C44.8286 34.8755 42.4276 38.3915 41.2599 38.3915ZM32.2834 40.3386C31.964 40.3386 31.803 40.0626 31.803 39.5924C31.803 37.5432 35.2832 30.8408 37.0335 30.8408C37.3632 30.8408 37.5139 31.1168 37.5139 31.5972C37.5139 33.6669 34.0542 40.3386 32.2834 40.3386ZM27.2087 33.3373C26.782 32.8748 26.317 32.4992 25.8366 32.2079C27.0273 29.76 28.3484 27.4475 30.0016 25.6844C30.5637 26.2644 30.8678 27.0566 30.8678 28.0045C30.8678 30.3604 29.3142 32.4276 27.2087 33.3373ZM20.6214 44.7182C20.1615 44.7182 19.7424 44.6568 19.3668 44.547C21.4289 42.2269 22.9645 38.5116 24.6433 34.781C25.3486 34.804 26.0257 34.7172 26.6262 34.6099C26.9609 35.3177 27.1679 36.1839 27.1679 37.2136C27.1679 40.584 24.6893 44.7183 20.6214 44.7183V44.7182ZM17.8746 43.7167C17.2128 43.0957 16.8857 42.2934 16.8933 41.6265C16.899 41.2943 16.9879 40.9877 17.131 40.722C17.3431 41.187 17.8592 41.5396 18.4853 41.5396C18.728 41.5396 18.958 41.4887 19.17 41.4017C18.7459 42.2679 18.3192 43.0498 17.8746 43.7167V43.7167ZM22.3181 32.6373C22.3181 32.185 22.8649 32.1058 23.4475 32.1748C23.238 32.5657 23.0335 32.9593 22.8368 33.3553C22.5072 33.1509 22.3181 32.8979 22.3181 32.6373ZM25.4329 33.0563C25.6577 33.2429 25.8698 33.4575 26.064 33.7003C25.7421 33.7693 25.4124 33.81 25.0777 33.8228C25.1953 33.5673 25.3128 33.3092 25.4329 33.0563V33.0563ZM57.0485 28.5131C57.442 28.0634 57.6873 27.5012 57.6873 27.0873C57.6873 26.8062 57.5238 26.6274 57.2606 26.6274C56.8237 26.6274 56.2973 27.1665 56.2973 27.9791C56.2973 28.094 56.3122 28.2065 56.3331 28.3189C55.8323 29.1034 55.311 29.898 54.7821 30.6646C54.6007 30.6288 54.4116 30.6084 54.2122 30.6084C52.9423 30.6084 51.6341 31.5615 51.6341 33.2838C51.6341 33.7514 51.7158 34.1627 51.8563 34.5179C50.7678 35.7572 49.8122 36.5595 49.1657 36.5595C48.9102 36.5595 48.7569 36.4216 48.7569 36.1328C48.7569 35.8236 48.9076 35.333 49.2066 34.6508L52.9398 26.3796L56.9719 25.9043L57.4293 24.9487L53.5275 25.0764L54.2046 23.579L52.6919 23.7681L52.0046 25.125L46.5466 25.3013L45.5654 27.2484L51.2738 26.5764L50.1265 28.853C49.5388 28.5899 48.8284 28.4391 48.0005 28.4391C46.751 28.4391 45.591 28.7483 44.5459 29.2721C44.0732 29.0421 43.5391 28.9297 42.9949 28.9297C41.6764 28.9297 40.1841 29.5634 38.9704 30.6749C38.7251 29.9186 38.2115 29.4637 37.4501 29.4637C36.5634 29.4637 35.6205 29.9288 34.7185 30.6826C34.1794 30.2405 33.3975 30.1128 32.5772 30.4245C33.0193 29.5992 33.2621 28.7202 33.2621 27.8463C33.2621 26.3208 32.5466 25.1991 31.2409 24.522C31.688 24.1591 32.1582 23.8346 32.6565 23.5561C32.4725 23.4104 32.3575 23.321 32.2042 23.2367C31.5552 23.4999 30.9419 23.8116 30.3619 24.1642C29.5391 23.9011 28.5579 23.7682 27.4362 23.7682C22.2261 23.7682 17.2971 26.7757 17.2971 30.4909C17.2971 32.1314 18.2246 32.7165 19.142 32.7165C19.9979 32.7165 20.8361 32.2362 21.1018 31.6536C20.3556 31.5002 19.9136 30.8538 19.9136 30.0336C19.9136 27.1411 23.4194 24.6089 27.0171 24.6089C27.822 24.6089 28.5196 24.7596 29.0919 25.0356C26.9073 26.7169 25.231 29.0064 23.8461 31.4543C23.6442 31.4237 23.4475 31.4083 23.2635 31.4083C22.2286 31.4083 21.4825 31.8529 21.4825 32.7114C21.4825 33.294 21.8632 33.7948 22.4433 34.1577C21.5898 35.9386 20.8386 37.7222 20.1206 39.3448C19.8702 38.8516 19.3029 38.5296 18.6437 38.5296C17.0595 38.5296 15.8687 39.9248 15.8687 41.6496C15.8687 42.7764 16.3261 43.8522 17.1131 44.7133C16.3695 45.5437 15.557 46.0369 14.6064 46.0598C14.2947 46.0673 13.9932 45.9935 13.7249 45.8375C14.4685 45.7558 15.0792 45.2039 15.0613 44.4858C15.0427 43.7678 14.4455 43.2593 13.6252 43.2772C12.621 43.3002 12.0768 44.1409 12.0947 44.8768C12.1253 46.2413 13.2828 46.9567 14.793 46.921C16.0987 46.8904 17.2204 46.4252 18.2195 45.6408C19.1675 46.2489 20.3531 46.6194 21.6793 46.6194C25.6858 46.6194 29.0868 43.2057 29.0868 38.6242C29.0868 36.8023 28.6167 35.3612 27.9165 34.2573C29.2171 33.7999 30.3593 33.0691 31.2485 32.1876C32.4955 30.9509 33.423 31.0658 33.9494 31.4006C31.8822 33.547 30.2035 37.0093 30.2035 39.3371C30.2035 40.7782 30.7784 41.716 31.8873 41.716C35.2142 41.716 39.185 35.3024 39.1365 31.7788C40.2046 30.5957 41.6329 29.8905 42.793 29.8905C43.0128 29.8905 43.2121 29.916 43.3935 29.9646C40.7948 31.8018 39.1748 34.9447 39.1748 37.362C39.1748 38.6447 39.8034 39.6157 41.0299 39.6157C43.3194 39.6157 46.3013 36.0511 46.3013 32.4943C46.3013 31.4032 45.9921 30.5804 45.499 30.0029C46.2987 29.5277 47.1777 29.2389 48.1206 29.2389C48.6674 29.2389 49.2398 29.3667 49.7534 29.5916L47.4614 34.1373C46.9273 35.2463 46.7204 36.069 46.7204 36.6644C46.7204 37.5843 47.257 38.0544 48.113 38.0544C49.3548 38.0544 50.8215 36.8995 52.2831 35.2488C52.9142 36.0307 53.898 36.3808 54.7131 36.3808C54.9711 36.3808 55.2369 36.3552 55.5052 36.3066C54.8894 37.0834 53.8647 37.6685 52.3623 38.0441L32.4648 43.0191C29.442 43.7729 27.5946 45.2652 28.4863 48.1219C29.1763 47.5546 30.4181 47.0001 33.6274 46.0215L51.6903 40.515C54.3324 39.7076 56.0086 37.8141 56.724 35.9029C57.9556 35.3075 59.0493 34.1653 59.0493 32.5785C59.0493 30.8282 57.5826 29.7831 57.0485 28.5132" fill="#1E1C59"/>
</g>
<defs>
<clipPath id="clip0_130_371">
<rect width="47.1429" height="25.073" fill="white" transform="translate(12 23.1428)"/>
</clipPath>
</defs>
</svg>
