<svg width="72" height="72" viewBox="0 0 72 72" fill="none" xmlns="http://www.w3.org/2000/svg">
<circle cx="36" cy="36" r="36" fill="#000B20"/>
<g clip-path="url(#clip0_130_306)">
<path d="M12.0518 42.3644H12.4406V43.5528H13.9311V42.3644H14.307V45.1374H13.9311V43.8698H12.4406V45.1374H12.0518V42.3644Z" fill="white"/>
<path d="M20.3342 44.1337C20.3342 44.8336 19.9194 45.2033 19.2065 45.2033C18.4807 45.2033 18.04 44.8732 18.04 44.1337V42.3643H18.4289V44.1337C18.4289 44.6223 18.714 44.8996 19.2065 44.8996C19.6861 44.8996 19.9583 44.6223 19.9583 44.1337V42.3643H20.3342V44.1337Z" fill="white"/>
<path d="M25.0389 45.2167C24.1835 45.2695 23.665 44.53 23.665 43.8037C23.665 42.9982 24.1187 42.2983 25.026 42.2983C25.6481 42.2983 26.1406 42.5624 26.2443 43.2227H25.8685C25.7907 42.8001 25.4407 42.6021 25.026 42.6021C24.3261 42.6021 24.0409 43.1963 24.0409 43.7905C24.0409 44.3715 24.4038 44.9262 25.0908 44.913C25.4407 44.8997 25.7259 44.8337 25.8685 44.596C25.9721 44.4508 25.9462 44.1867 25.9332 43.9886H25.026V43.6717H26.2703C26.2703 43.6717 26.2703 44.398 26.2703 44.7149C25.9462 45.1242 25.5574 45.1903 25.0389 45.2167Z" fill="white"/>
<path d="M30.9235 44.8997C31.6104 44.8997 31.9085 44.3055 31.9085 43.7509C31.9085 43.1963 31.6104 42.6021 30.9235 42.6021C30.2236 42.6021 29.9384 43.1963 29.9384 43.7509C29.9384 44.3055 30.2236 44.8997 30.9235 44.8997ZM30.9235 42.2983C31.8307 42.2983 32.2844 42.9982 32.2844 43.7509C32.2844 44.5036 31.8307 45.2035 30.9235 45.2035C30.0161 45.2035 29.5625 44.5036 29.5625 43.7509C29.5625 42.9982 30.0161 42.2983 30.9235 42.2983Z" fill="white"/>
<path d="M39.9183 43.5528H40.6701C41.0979 43.5528 41.2793 43.4076 41.2793 43.1171C41.2793 42.7341 41.0071 42.6681 40.6701 42.6681H39.9183V43.5528ZM39.9183 44.8337H40.8645C41.1886 44.8337 41.3959 44.6357 41.3959 44.3319C41.3959 43.9754 41.0979 43.8698 40.7738 43.8698H39.9183V44.8337ZM39.5425 42.3644H40.5664C40.8257 42.3644 41.1497 42.3644 41.3182 42.4568C41.5126 42.5757 41.6552 42.7737 41.6552 43.0378C41.6552 43.3416 41.4996 43.566 41.2404 43.6717C41.5903 43.7377 41.7848 44.0018 41.7848 44.3451C41.7848 44.7545 41.4737 45.1374 40.9164 45.1374H39.5425V42.3644Z" fill="white"/>
<path d="M46.5416 44.8997C47.2415 44.8997 47.5266 44.3055 47.5266 43.7509C47.5266 43.1963 47.2415 42.6021 46.5416 42.6021C45.8546 42.6021 45.5565 43.1963 45.5565 43.7509C45.5565 44.3055 45.8546 44.8997 46.5416 44.8997ZM46.5416 42.2983C47.4489 42.2983 47.9155 42.9982 47.9155 43.7509C47.9155 44.5036 47.4489 45.2035 46.5416 45.2035C45.6343 45.2035 45.1807 44.5036 45.1807 43.7509C45.1807 42.9982 45.6343 42.2983 46.5416 42.2983Z" fill="white"/>
<path d="M53.139 43.1831C53.1001 42.7737 52.828 42.6021 52.4391 42.6021C52.1151 42.6021 51.804 42.7209 51.804 43.0774C51.804 43.4208 52.2576 43.4736 52.7113 43.5792C53.165 43.6717 53.6186 43.8301 53.6186 44.3848C53.6186 44.9658 53.0224 45.2035 52.5039 45.2035C51.8688 45.2035 51.3374 44.8997 51.3374 44.2263H51.6874C51.6874 44.6885 52.0892 44.8997 52.5169 44.8997C52.8668 44.8997 53.2427 44.7941 53.2427 44.3848C53.2427 44.0018 52.7891 43.949 52.3354 43.8433C51.8818 43.7509 51.4152 43.6189 51.4152 43.1039C51.4152 42.5492 51.9336 42.2983 52.4521 42.2983C53.0353 42.2983 53.476 42.5624 53.5019 43.1831H53.139Z" fill="white"/>
<path d="M59.2828 43.1831C59.231 42.7737 58.9588 42.6021 58.57 42.6021C58.2589 42.6021 57.9349 42.7209 57.9349 43.0774C57.9349 43.4208 58.3885 43.4736 58.8551 43.5792C59.3088 43.6717 59.7624 43.8301 59.7624 44.3848C59.7624 44.9658 59.1662 45.2035 58.6477 45.2035C58.0126 45.2035 57.4683 44.8997 57.4683 44.2263H57.8312C57.8312 44.6885 58.233 44.8997 58.6607 44.8997C58.9977 44.8997 59.3865 44.7941 59.3865 44.3848C59.3865 44.0018 58.9199 43.949 58.4663 43.8433C58.0126 43.7509 57.559 43.6189 57.559 43.1039C57.559 42.5492 58.0645 42.2983 58.5959 42.2983C59.1662 42.2983 59.6198 42.5624 59.6328 43.1831H59.2828Z" fill="white"/>
<path d="M15.3957 27.7066V32.6982H17.1714C17.1714 32.6982 17.3269 32.685 17.4177 32.6585C18.4546 32.5661 19.1156 31.2984 19.1804 30.3741C19.2841 29.3837 18.6879 27.7463 17.1973 27.7066C16.7566 27.6934 15.3957 27.7066 15.3957 27.7066ZM15.3957 33.2792V39.2611H17.0029C17.0029 39.2611 17.9102 39.3271 18.7267 38.6537C19.5304 37.9934 19.9451 37.0162 19.8544 35.8938C19.7896 34.8902 19.0378 33.4641 17.3529 33.2792C16.4585 33.2792 15.3957 33.2792 15.3957 33.2792ZM19.1804 27.1256C20.5154 27.2048 21.3838 27.9311 21.4616 28.0236C22.1485 28.6706 22.3559 29.6478 22.1874 30.5854C21.9671 32.1568 20.0488 32.817 20.0488 32.817C21.656 33.0151 22.8614 34.2432 23.0429 35.5637C23.1984 36.8578 22.7318 38.0066 21.6819 38.8121C20.6191 39.6176 19.0638 39.8817 18.2212 39.8817C18.2212 39.8817 11.7147 39.8817 11.3518 39.8817C11.3518 39.6705 11.3518 39.512 11.3518 39.3271C12.2331 39.3403 12.3368 39.3403 12.3368 38.9838C12.3239 37.6369 12.3368 28.2348 12.3368 27.9839C12.3368 27.6934 12.1942 27.6802 11.3518 27.6802C11.3388 27.4557 11.3647 27.1256 11.3647 27.1256H19.1804Z" fill="white"/>
<path d="M29.7831 27.8123C28.9276 28.3933 28.3314 29.727 28.0463 30.8362C27.5926 32.5133 27.6834 34.494 28.137 36.5276C28.6036 38.5612 29.8868 39.2743 30.6515 39.446C32.0773 39.7761 33.0105 38.931 33.516 38.1519C34.501 36.6333 34.7473 33.5037 34.4362 31.7078C34.151 30.0439 33.7104 28.8819 32.8549 28.1028C31.8958 27.2444 30.5219 27.3105 29.7831 27.8123ZM37.4692 35.7089C36.8729 37.518 35.6805 38.6537 34.3066 39.3931C32.505 40.3835 29.9257 40.542 28.124 39.446C27.0094 38.7725 24.1709 36.9766 24.5467 32.7378C24.6245 31.8266 25.0781 29.5421 27.5797 27.8255C29.2905 26.6898 31.7532 26.3597 34.0474 27.4425C37.6247 29.1064 38.3765 33.2131 37.4692 35.7089Z" fill="white"/>
<path d="M47.9806 27.7199C47.9936 28.6706 47.9806 30.6382 47.9806 30.6382L47.527 30.6514C47.2548 29.4233 46.6715 28.3669 45.6735 27.8783C44.7144 27.4029 43.2627 27.1652 42.3165 28.0104C41.7592 28.5122 41.6814 29.0272 41.8758 29.6082C42.2128 30.4665 43.146 30.7306 43.8719 31.0608C44.4681 31.2984 45.7383 31.721 45.7383 31.721C47.1511 32.2228 48.7194 33.2 49.1471 34.8242C49.3415 35.5241 49.3415 36.3164 49.186 37.0295C48.836 38.6141 47.838 38.997 47.2677 39.3932C46.9826 39.5912 44.3125 40.6345 41.0982 39.5648C40.4371 39.3404 39.6724 39.0763 39.6724 39.0763V35.5241C39.6724 35.5241 40.0224 35.5373 40.1649 35.5373C40.3852 36.1051 40.5797 36.7918 41.0463 37.4784C42.135 39.0895 43.6774 39.578 45.3754 39.2083C46.0494 39.0498 46.7882 38.5745 46.9826 37.8614C47.2288 37.0559 47.1511 35.7222 44.7662 34.8242C43.0423 34.0187 40.8778 33.6886 39.8539 31.7342C39.452 30.6382 39.5687 28.7367 40.8907 27.8123C42.2258 26.8879 43.5219 26.6767 45.0902 26.8879C46.6456 27.1124 47.0604 27.3237 47.9806 27.7199Z" fill="white"/>
<path d="M59.3347 27.7199C59.3476 28.6706 59.3347 30.6382 59.3347 30.6382L58.881 30.6514C58.6088 29.4233 58.0256 28.3669 57.0276 27.8783C56.0684 27.4029 54.6168 27.1652 53.6706 28.0104C53.1132 28.5122 53.0355 29.0272 53.2299 29.6082C53.5669 30.4665 54.5001 30.7306 55.2259 31.0608C55.8222 31.2984 57.0924 31.721 57.0924 31.721C58.5051 32.2228 60.0735 33.2 60.5012 34.8242C60.6956 35.5241 60.6956 36.3164 60.5401 37.0295C60.1901 38.6141 59.1921 38.997 58.6218 39.3932C58.3366 39.5912 55.6666 40.6345 52.4522 39.5648C51.7912 39.3404 51.0264 39.0763 51.0264 39.0763V35.5241C51.0264 35.5241 51.3764 35.5373 51.519 35.5373C51.7393 36.1051 51.9338 36.7918 52.4004 37.4784C53.4891 39.0895 55.0315 39.578 56.7295 39.2083C57.4034 39.0498 58.1422 38.5745 58.3366 37.8614C58.5829 37.0559 58.5051 35.7222 56.1203 34.8242C54.3964 34.0187 52.2319 33.6886 51.2079 31.7342C50.8061 30.6382 50.9228 28.7367 52.2578 27.8123C53.5799 26.8879 54.876 26.6767 56.4313 26.8879C57.9996 27.1124 58.4144 27.3237 59.3347 27.7199Z" fill="white"/>
</g>
<defs>
<clipPath id="clip0_130_306">
<rect width="49.7143" height="18.8571" fill="white" transform="translate(11.1431 26.5714)"/>
</clipPath>
</defs>
</svg>
