<svg width="24" height="24" viewBox="0 0 24 24" fill="none" xmlns="http://www.w3.org/2000/svg">
<g clip-path="url(#clip0_1_711)">
<path d="M6.14995 15.36L3.21302 3.86032H0V2.05273H4.61695L5.30931 4.76359L24 4.75022L22.0129 15.3599H6.14995V15.36ZM5.77084 6.57086L7.55389 13.5524H20.5124L21.8222 6.55937L5.77084 6.57086Z" fill="white"/>
<path d="M8.62436 21.9473C7.03046 21.9473 5.73373 20.6505 5.73373 19.0566C5.73373 17.4627 7.03046 16.166 8.62436 16.166H19.5151C21.109 16.166 22.4058 17.4627 22.4058 19.0566C22.4058 20.6505 21.109 21.9473 19.5151 21.9473C17.9212 21.9473 16.6245 20.6505 16.6245 19.0566C16.6245 18.6738 16.6995 18.3083 16.8352 17.9736H11.3043C11.44 18.3083 11.515 18.6738 11.515 19.0566C11.515 20.6505 10.2183 21.9473 8.62436 21.9473ZM18.4321 19.0566C18.4321 19.6538 18.9179 20.1397 19.5151 20.1397C20.1123 20.1397 20.5982 19.6538 20.5982 19.0566C20.5982 18.4594 20.1123 17.9736 19.5151 17.9736C18.9179 17.9736 18.4321 18.4594 18.4321 19.0566ZM7.54129 19.0566C7.54129 19.6538 8.02713 20.1397 8.62433 20.1397C9.22153 20.1397 9.70737 19.6538 9.70737 19.0566C9.70737 18.4594 9.22153 17.9736 8.62433 17.9736C8.02713 17.9736 7.54129 18.4594 7.54129 19.0566Z" fill="white"/>
</g>
<defs>
<clipPath id="clip0_1_711">
<rect width="24" height="24" fill="white" transform="matrix(-1 0 0 1 24 0)"/>
</clipPath>
</defs>
</svg>
