<svg width="72" height="72" viewBox="0 0 72 72" fill="none" xmlns="http://www.w3.org/2000/svg">
<circle cx="36" cy="36" r="36" fill="#231F20"/>
<g clip-path="url(#clip0_130_376)">
<path d="M18.3357 34.5513C18.2448 34.6062 18.1349 34.6237 18.0117 34.646C17.8885 34.6648 17.6366 34.7856 17.5072 35.1992C17.3763 35.6117 18.0689 35.4584 18.0689 35.4584C18.1813 35.5369 18.5787 34.808 18.5387 34.5776C18.5001 34.3433 18.4265 34.4977 18.3357 34.5513Z" fill="#231F20"/>
<path d="M35.5471 59.6991C22.6135 59.6991 12.0899 49.2177 12.0899 36.3343C12.0899 23.4533 22.6135 12.9731 35.5471 12.9731C48.4818 12.9731 59.0044 23.4533 59.0044 36.3343C59.0044 49.2177 48.4818 59.6991 35.5471 59.6991ZM35.5707 11.1427C21.6067 11.1427 10.2856 22.4191 10.2856 36.3256C10.2856 50.2372 21.6067 61.511 35.5707 61.511C49.536 61.511 60.8571 50.2372 60.8571 36.3256C60.8571 22.4191 49.5361 11.1427 35.5707 11.1427Z" fill="#231F20"/>
<path d="M35.4943 22.3242C35.4816 22.3814 35.3622 22.6794 35.2077 22.6619C35.0632 22.5684 35.19 22.4737 35.2189 22.268C35.2473 21.9604 35.1926 21.7248 35.083 21.5554C35.048 21.5206 34.9883 21.4619 34.9533 21.4358C34.9335 21.4197 34.9087 21.4047 34.8586 21.4084C34.814 21.4108 34.7926 21.4532 34.7915 21.5018C34.8001 21.7011 34.7527 21.9056 34.7454 21.9517C34.7268 22.0526 34.6992 22.1895 34.5745 22.2606C34.4937 22.3067 34.5436 22.0363 34.5411 21.878C34.5374 21.7199 34.4851 21.5255 34.4439 21.4357C34.3578 21.2513 34.1124 21.3785 34.1124 21.3785L33.9081 21.4744C33.6825 21.6762 33.533 21.9853 33.533 22.3416C33.533 22.8076 33.7722 23.0542 33.9492 23.1453C33.9418 23.1453 34.0028 23.2151 33.9839 23.281C33.9765 23.3596 33.9069 23.3658 33.8979 23.3658C33.0969 23.3658 32.6459 22.6044 32.6459 21.6663C32.6459 20.7268 33.2962 19.9667 34.0988 19.9667C34.901 19.9667 35.5516 20.7268 35.5516 21.6663C35.5516 21.8356 35.5352 22.1696 35.4943 22.3242ZM35.1081 19.9194C34.7079 19.6305 34.166 19.5568 33.7698 19.5831C33.6924 19.6004 33.204 19.8384 33.0644 19.943C32.1151 20.662 32.1176 22.5435 32.6283 23.1054C32.9474 23.4569 33.1628 23.6488 33.6153 23.7297C34.1261 23.822 34.7194 23.6949 35.0431 23.5977C35.3783 23.4954 35.641 23.1255 35.833 22.7305C36.0598 22.2582 36.0688 21.3823 35.8032 20.7581C35.5377 20.3406 35.5566 20.2459 35.1081 19.9194Z" fill="#231F20"/>
<path d="M21.5608 37.0483C21.6416 37.4782 21.7836 37.4271 21.9133 37.4371C22.3218 37.4621 22.5389 36.996 22.5512 36.8589C22.5586 36.7218 22.636 36.2197 22.7257 36.1574C22.818 36.0926 22.5985 35.9567 22.3865 36.0365C22.3865 36.0365 21.4797 36.6134 21.5608 37.0483Z" fill="#231F20"/>
<path d="M51.5278 34.8415C51.5653 34.879 51.5913 34.9227 51.6015 34.9774C51.6127 35.0285 51.6176 35.1045 51.6176 35.2005V35.598H51.8293C51.9117 35.598 51.9738 35.6153 52.0163 35.654C52.0611 35.6927 52.0809 35.7413 52.0809 35.8023C52.0809 35.877 52.0512 35.9308 51.9914 35.9619C51.9292 35.9917 51.8395 36.008 51.7247 36.008H51.6176V37.0722C51.6176 37.1592 51.6201 37.23 51.6275 37.2789C51.6349 37.326 51.6513 37.3662 51.6773 37.3959C51.7048 37.4271 51.7497 37.442 51.812 37.442C51.8456 37.442 51.8918 37.4371 51.9515 37.4243C52.0075 37.4132 52.0537 37.4058 52.0846 37.4058C52.1335 37.4058 52.1757 37.4256 52.2131 37.4621C52.2505 37.498 52.2678 37.5453 52.2678 37.5977C52.2678 37.6911 52.2183 37.7624 52.1159 37.8106C52.0137 37.8571 51.868 37.8831 51.6773 37.8831C51.4966 37.8831 51.3585 37.8533 51.2662 37.7933C51.1716 37.7299 51.1103 37.6475 51.0819 37.5404C51.053 37.4334 51.0394 37.2913 51.0394 37.1131V36.008H50.9623C50.8801 36.008 50.8151 35.988 50.7705 35.9493C50.729 35.9108 50.7055 35.861 50.7055 35.8023C50.7055 35.7413 50.729 35.6927 50.7754 35.654C50.82 35.6153 50.8875 35.598 50.9747 35.598H51.0394V35.2478C51.0394 35.1557 51.0419 35.0833 51.0444 35.0285C51.0518 34.9774 51.0645 34.9301 51.0868 34.8926C51.1103 34.8528 51.1416 34.8218 51.1865 34.7968C51.2264 34.7719 51.2738 34.7594 51.3273 34.7594C51.4007 34.7594 51.4682 34.7867 51.5278 34.8415ZM52.4936 35.872C52.4936 35.7649 52.5198 35.6826 52.5669 35.6254C52.6195 35.568 52.6842 35.542 52.7677 35.542C52.8461 35.542 52.9111 35.5667 52.9646 35.6192C53.0182 35.6703 53.043 35.7438 53.043 35.836V35.8908C53.1438 35.7712 53.2513 35.6865 53.3645 35.6304C53.4818 35.5731 53.6074 35.5457 53.7483 35.5457C53.8916 35.5457 54.0172 35.5743 54.1222 35.6316C54.2268 35.689 54.3116 35.7748 54.3788 35.8908C54.476 35.7724 54.5818 35.6865 54.6926 35.6316C54.805 35.5731 54.9297 35.5457 55.064 35.5457C55.2237 35.5457 55.3593 35.5743 55.4741 35.6379C55.5874 35.6989 55.6734 35.7862 55.7295 35.9007C55.7805 36.0055 55.8043 36.17 55.8043 36.3931V37.5191C55.8043 37.6389 55.7743 37.7299 55.722 37.7933C55.6647 37.8534 55.5911 37.8831 55.5026 37.8831C55.4155 37.8831 55.3432 37.8533 55.2859 37.7908C55.2311 37.7299 55.2036 37.6376 55.2036 37.5179V36.5485C55.2036 36.4229 55.1974 36.3257 55.1862 36.2509C55.176 36.175 55.1488 36.1126 55.1002 36.0615C55.0541 36.0104 54.9841 35.9855 54.8894 35.9855C54.8124 35.9855 54.7415 36.008 54.674 36.0553C54.6056 36.0975 54.5507 36.1575 54.5133 36.2359C54.4697 36.3343 54.4511 36.5052 54.4511 36.7518V37.5179C54.4511 37.6389 54.4224 37.7298 54.3676 37.7908C54.3116 37.8533 54.2403 37.883 54.1494 37.883C54.0624 37.883 53.9925 37.8533 53.9365 37.7908C53.8829 37.7298 53.8553 37.6389 53.8553 37.5179V36.5986C53.8553 36.4537 53.8504 36.3417 53.8405 36.2595C53.8318 36.1798 53.8031 36.1137 53.7607 36.0639C53.717 36.0116 53.6486 35.9855 53.5527 35.9855C53.362 35.9855 53.2385 36.0502 53.1788 36.1798C53.1178 36.3094 53.0878 36.4952 53.0878 36.7379V37.5179C53.0878 37.6376 53.0606 37.7298 53.0083 37.7908C52.9531 37.8533 52.881 37.883 52.7913 37.883C52.7055 37.883 52.6343 37.8533 52.5796 37.7908C52.5223 37.7298 52.4936 37.6389 52.4936 37.5191V35.872ZM28.6113 20.2547C29.3579 20.2547 29.962 20.9624 29.962 21.8321C29.962 21.9904 29.9472 22.302 29.9097 22.4464C29.8961 22.4963 29.7865 22.7767 29.6442 22.7592C29.5086 22.6719 29.6268 22.5861 29.6507 22.3929C29.6792 22.1076 29.6281 21.8883 29.5272 21.7324C29.4938 21.6988 29.4375 21.644 29.4065 21.6191C29.3888 21.6079 29.3654 21.5916 29.3192 21.5955C29.278 21.598 29.2567 21.6377 29.2554 21.6801C29.2644 21.8658 29.2195 22.0577 29.2133 22.1001C29.1944 22.1936 29.1709 22.3207 29.0536 22.3854C28.9803 22.429 29.0276 22.1774 29.0227 22.0316C29.0202 21.8858 28.9729 21.705 28.9329 21.6191C28.8518 21.4495 28.6253 21.5669 28.6253 21.5669L28.4371 21.6577C28.2251 21.8421 28.088 22.1324 28.088 22.4588C28.088 22.895 28.3099 23.123 28.4742 23.2064C28.4669 23.2064 28.5232 23.2725 28.5068 23.3347C28.4994 23.4059 28.4346 23.4121 28.4257 23.4121C27.6819 23.4121 27.2632 22.703 27.2632 21.8321C27.2632 20.9624 27.8688 20.2547 28.6113 20.2547ZM17.0448 46.4467C17.2803 45.3241 17.471 45.0562 17.7399 44.5727C17.9857 44.1307 19.4534 42.4136 21.4605 42.3288C22.9483 42.2629 24.6066 42.5906 25.8004 42.7574C26.8183 42.8159 27.121 42.5804 27.3306 42.4872C27.8712 42.239 28.387 41.3445 28.6537 41.6596C28.9181 41.9697 28.5441 42.5792 28.138 43.0103C27.9409 43.2183 27.6571 43.4365 27.3879 44.1926C27.2083 44.6912 26.7397 45.2344 26.0046 45.1062C25.6756 45.0486 25.6806 44.9354 25.459 44.8794C25.125 44.7934 24.9381 44.8345 24.6514 44.9329C24.4286 45.0104 24.1281 45.5396 24.0485 45.6545C23.9114 45.8476 23.6548 46.418 23.5737 46.721C23.4617 47.1435 23.4565 47.6991 23.003 48.7582C22.8836 49.0349 22.2318 49.4994 21.8507 49.1231C21.5642 48.8364 21.7483 47.8176 21.9052 47.2258C22.0575 46.6337 22.2318 46.3145 22.3952 46.0395C22.5232 45.8213 22.7786 45.4888 22.8621 45.2657C22.8621 45.2657 22.9495 44.7559 22.618 44.8432C22.2816 44.9304 22.284 45.0191 21.9627 45.2818C21.7433 45.4625 21.5864 45.7791 21.3434 46.3857C21.2051 46.7322 21.0219 47.1496 20.7941 47.6182C20.5422 48.14 20.2556 48.7033 19.9767 48.9113C19.5431 49.2341 18.9299 48.803 18.9448 48.3805C18.9587 47.9197 19.0794 47.3316 19.189 46.9801C19.2936 46.6374 19.4632 46.4356 19.6415 46.1214C19.8845 45.6905 20.0661 45.3814 20.2605 45.0762C20.5248 44.6649 20.1583 44.5603 19.9293 44.6723C19.7559 44.7521 19.7374 44.725 19.3437 45.1149C19.0893 45.3691 18.5786 46.3208 18.3966 46.8543C18.1973 47.4462 17.7962 47.6554 17.4297 47.4948C17.1569 47.3761 16.9538 46.8878 17.0448 46.4467ZM29.6256 43.1162C29.7627 43.0927 30.4817 43.3155 30.4817 43.3155C30.4817 43.3155 32.7256 44.2638 39.2224 43.9075C39.2224 43.9075 40.3837 43.5374 40.5654 43.9884C40.7474 44.4397 40.2813 45.1698 39.2723 45.3378C39.0278 45.3777 38.5657 45.4263 38.5657 45.4263C38.5657 45.4263 32.9986 45.6643 30.6362 44.8581C30.6362 44.8581 30.2038 44.7873 30.0444 44.7873C29.885 44.7873 28.7609 44.7423 28.786 43.9364C28.8082 43.1285 29.49 43.1387 29.6256 43.1162ZM30.9527 40.6493C30.9527 40.6493 34.1338 41.4627 39.1776 41.2273C39.1776 41.2273 40.2515 41.0616 40.2964 41.6782C40.3438 42.2966 40.2466 42.7686 39.5651 42.8422C38.8823 42.9131 38.8584 42.7747 38.4063 42.7937C36.1859 42.8847 32.98 42.6602 31.2131 42.3337C31.2131 42.3337 30.8343 42.1818 30.4294 42.0969C30.0942 42.026 29.7018 41.8589 29.7466 41.3594C29.7927 40.8636 30.1341 40.4349 30.9527 40.6493ZM32.6835 39.0381C32.9862 38.5921 33.7897 38.7168 33.7897 38.7168C33.7897 38.7168 34.5897 38.9022 36.2719 38.9261C37.9513 38.9496 38.587 38.7366 39.5412 38.7576C40.4957 38.7827 40.3388 39.5426 40.2017 39.9675C40.0646 40.3986 39.1101 40.2554 38.7687 40.2291C38.4297 40.2056 35.0209 40.2554 33.7475 40.1833C32.4765 40.1121 32.4167 39.4256 32.6835 39.0381ZM35.2524 37.346C35.3947 37.012 35.9754 36.8864 35.9754 36.8864C35.9754 36.8864 36.678 36.7892 37.1564 36.6945C37.6324 36.601 37.9825 36.5587 38.3461 36.4627C38.7089 36.368 39.0129 36.7181 39.0803 37.0269C39.1487 37.3374 39.3493 37.736 38.9605 37.8472C38.8061 37.8904 38.1283 37.9468 37.6099 38.0239C37.3159 38.0675 35.9704 38.2483 35.4047 38.2219C34.8364 38.2009 35.1131 37.6664 35.2524 37.346ZM35.5452 14.2316C23.3086 14.2316 13.353 24.1484 13.353 36.3355C13.353 48.5239 23.3086 58.4407 35.5452 58.4407C45.2166 58.4407 53.4567 52.2444 56.4908 43.6333C55.7619 44.655 54.471 45.3591 53.2398 45.6009C51.1166 46.023 49.6489 45.4538 49.1382 45.3464C48.6297 45.2419 48.4353 45.451 48.2636 45.7878C48.0877 46.1202 48.0354 46.3709 47.9144 46.6959C47.8349 46.9129 47.7325 47.5631 47.6653 47.8101C47.5059 48.4106 47.445 49.3687 46.4879 49.6529C45.983 49.8033 45.714 49.4746 45.7762 48.8392C45.831 48.2985 46.0241 47.4 46.1328 47.0236C46.3346 46.3171 46.3779 46.226 46.3779 46.023C46.3779 46.023 46.3894 45.2908 46.0406 45.3814C45.6902 45.4736 45.5172 45.7413 45.3352 46.2576C45.2167 46.5913 45.2541 46.6488 45.0486 47.3575C44.8568 48.0218 44.8279 48.4242 44.7072 48.6509C44.4767 49.0845 43.9895 49.7275 43.6295 49.7822C43.2272 49.841 43.0341 49.4285 42.9901 49.0171C42.943 48.5386 43.0003 48.4018 43.0551 48.1115C43.1049 47.8695 43.1423 47.7039 43.2581 47.2393C43.4026 46.741 43.4837 46.5228 43.6481 46.1951C43.9309 45.6244 43.9647 45.2146 43.5933 45.3814C43.4138 45.4649 43.1498 45.7252 42.7412 46.1317C42.4744 46.3981 41.986 47.1297 41.7966 47.6878C41.5886 48.3034 40.877 48.7757 40.492 48.6086C40.2079 48.4854 40.1107 48.1687 40.2079 47.6067C40.3961 46.5052 40.6502 45.9833 41.0191 45.4761C41.328 45.0511 42.9006 43.0501 44.9963 42.9567C47.0949 42.8669 48.3545 43.6184 48.4876 43.1935C48.6022 42.8258 47.9169 42.1084 45.3191 42.0421C44.7858 42.0284 43.4388 42.2315 42.7685 42.675C42.2364 43.0275 42.2776 43.4015 41.6632 43.1272C41.0513 42.8521 40.8845 42.5543 40.973 41.3667C41.0604 40.1819 41.1461 39.0866 40.973 38.6307C40.7985 38.1732 39.2225 36.7143 39.575 35.8931C39.925 35.072 40.4883 34.7817 40.9529 33.9692C41.9585 32.2075 42.1952 29.4152 41.6719 28.867C41.1461 28.3212 40.973 28.6863 40.973 29.1411C40.973 29.5971 40.9867 32.7881 39.4141 34.0652C37.8393 35.3424 36.3927 35.0994 36.1312 34.9163C35.8693 34.7343 35.6514 34.8952 35.7384 35.2614C35.8281 35.6253 35.6614 36.1373 35.1355 36.5935C34.612 37.0482 32.8916 38.284 30.3059 39.5128C29.9011 39.701 29.2579 39.8341 28.821 40.0173C28.3821 40.1981 28.1951 40.0346 27.6396 40.9069C27.3781 41.3194 26.0571 41.9263 25.5328 41.8515C24.2629 41.672 23.9602 41.1151 24.0487 40.658C24.0973 40.4048 24.0475 40.0013 25.3793 39.5338C26.167 39.2596 27.0277 38.4771 27.15 38.1361C27.3493 37.5877 27.6108 36.6344 28.0893 36.6981C28.4471 36.7464 29.1323 37.3472 29.6582 36.9835C30.1816 36.6183 30.215 36.2283 30.3895 35.68C30.5654 35.133 30.9986 34.7642 31.3502 34.3094C31.7003 33.8522 31.5072 33.4421 31.5072 33.0785C31.5072 32.7132 31.6319 31.4212 32.155 31.4212C32.6784 31.4212 33.2191 31.8598 34.2135 31.9271C34.4552 31.9446 35.2079 31.8822 35.2302 31.4C35.2501 30.9951 35.1804 29.3004 35.5292 28.4819C35.8808 27.6596 36.7777 27.3168 37.1266 26.7685C37.4778 26.2216 37.1092 24.871 36.8226 25.1987C36.6007 25.4504 36.1572 26.4323 35.71 26.654C35.1379 26.9369 34.9461 26.8708 34.5973 26.7799C34.246 26.6889 34.0216 26.1457 33.6851 26.5418C33.5332 26.7213 33.8696 27.0003 34.0479 27.0664C34.4552 27.2171 34.5648 27.5361 34.5075 28.1392C34.4202 29.05 34.9449 30.7832 33.4586 30.7832C31.9733 30.7832 31.7102 30.3272 31.3627 30.5103C31.0114 30.6923 30.9241 30.7832 30.9241 31.2405C30.9241 31.6977 30.9442 32.9425 30.6824 33.5804C30.4181 34.2197 29.7402 36.5832 28.4781 36.0763C27.4165 35.6488 27.4641 35.5965 27.388 35.4919C27.3131 35.3896 26.9918 35.3859 27.0203 35.5467C27.0767 35.8681 27.1713 35.7297 27.1887 36.1135C27.2134 36.7516 26.9046 37.4454 26.4685 37.4454C26.0311 37.4454 25.7668 37.2586 25.4193 37.2586C25.0705 37.2586 24.9572 37.5826 24.8711 37.8543C24.8711 37.8543 24.3716 39.4501 22.7978 39.8166C21.2264 40.1818 20.642 39.6522 20.4752 39.3731C19.9917 38.5458 18.9528 38.0845 18.4294 37.8104C17.9035 37.534 16.2638 36.8138 16.7695 35.5292C17.0014 34.9385 16.7921 35.0818 17.1186 34.5709C17.6367 33.7711 19.6553 32.6971 20.0914 32.3357C20.525 31.9744 20.9463 31.2354 21.3125 30.0542C21.6814 28.8706 22.7105 27.956 23.2338 27.4987C23.7597 27.0427 25.0704 26.4048 25.5065 25.7667C25.9451 25.1263 26.461 23.7034 26.5706 23.1452C26.5706 23.1477 26.6055 22.9296 26.7189 22.7851C26.8259 22.6517 26.9219 22.7377 26.9717 22.8909C27.0367 23.0877 27.15 23.21 27.2011 23.2673C27.358 23.4491 27.4279 23.4841 27.6096 23.5737C27.9587 23.7606 28.8058 23.9177 29.5935 23.4479C30.3184 22.851 30.3221 22.293 30.3809 21.7222C30.4369 21.1889 30.1466 20.5708 29.5873 20.1959C29.3069 20.0102 28.933 19.8868 28.4471 19.8868C27.4053 19.8868 27.0301 21.2387 26.8346 20.5148C26.6752 19.9218 26.9304 19.3098 27.1661 18.7929C27.9538 17.0684 28.6015 16.1625 29.561 16.3482C30.5229 16.53 31.1011 18.5561 31.886 18.5561C32.2534 18.5561 32.9349 18.4079 33.5245 18.0265C33.6452 17.9505 33.76 17.8844 33.8721 17.826C34.2061 17.5568 34.6459 17.0483 34.86 16.8515C36.2246 15.6118 37.047 16.8105 37.6573 17.2665C38.2679 17.7224 39.575 19.6513 40.1841 19.7447C40.7985 19.8344 41.2395 19.1779 41.8415 19.0595C42.6515 18.8987 43.3318 18.8313 43.1572 20.1085C42.9802 21.3869 42.8953 21.6612 43.2445 21.6612C43.5933 21.6612 44.3807 21.2947 44.6413 21.9326C44.904 22.5719 44.0306 23.2111 44.0306 23.6683C44.0306 24.1231 44.4692 24.2664 44.904 24.3064C45.588 24.3673 45.7762 24.7624 45.6042 25.2183C45.4287 25.6732 44.9914 25.8576 45.1659 26.2214C45.3401 26.5865 45.6042 26.7683 46.0406 26.7683C46.4781 26.7683 47.0896 26.5865 47.2642 27.1348C47.4384 27.6804 47.0027 28.777 46.4781 29.1408C45.9533 29.5059 45.7762 30.054 46.216 30.236C46.6523 30.4192 47.613 30.4192 47.7015 31.0583C47.7875 31.6974 47.5257 32.1523 47.2642 32.4251C47.0027 32.6993 47.1769 33.2474 47.613 33.4294C48.0516 33.6127 49.3598 33.8867 49.0111 34.7976C48.6635 35.712 49.3202 37.4803 48.2759 37.0116C47.6653 36.7349 46.3346 36.8773 45.208 37.1713C44.6949 37.3045 44.0096 37.7482 43.9545 38.0333C43.8837 38.406 44.2498 38.3249 44.3457 38.2886C45.0062 38.0461 46.6684 37.7319 47.1147 37.7482C48.0392 37.7767 49.1518 38.0497 49.709 38.3499C50.5812 38.8222 50.8678 39.5025 50.8678 39.5025C50.8678 39.5025 52.8536 39.0637 54.4011 39.5573C55.7443 39.9859 56.9644 40.4369 57.074 41.7016C57.5063 39.9834 57.7407 38.1864 57.7407 36.335C57.7406 24.1484 47.785 14.2316 35.5452 14.2316Z" fill="#231F20"/>
<path d="M30.4287 42.0968C30.8348 42.1829 31.2136 42.3324 31.2136 42.3324C32.9806 42.6601 36.1864 42.8857 38.4068 42.7936C38.859 42.7762 38.8816 42.9118 39.5644 42.8421C40.2472 42.7685 40.3444 42.2964 40.2995 41.678C40.2545 41.0627 39.1781 41.2271 39.1781 41.2271C34.1344 41.4626 30.9521 40.6492 30.9521 40.6492C30.1347 40.4348 29.7933 40.8634 29.7472 41.3592C29.7023 41.8576 30.0948 42.0259 30.4287 42.0968Z" fill="white"/>
<path d="M30.0464 44.7873C30.2046 44.7873 30.6357 44.8569 30.6357 44.8569C33.0007 45.6644 38.5665 45.4263 38.5665 45.4263C38.5665 45.4263 39.0286 45.3777 39.2731 45.3378C40.2821 45.1698 40.747 44.4397 40.5675 43.9884C40.3846 43.5362 39.2233 43.9076 39.2233 43.9076C32.7265 44.2639 30.4826 43.3155 30.4826 43.3155C30.4826 43.3155 29.7635 43.0927 29.6264 43.1162C29.4893 43.1387 28.8091 43.1286 28.7855 43.9364C28.7629 44.7423 29.8858 44.7873 30.0464 44.7873Z" fill="white"/>
<path d="M35.4049 38.2218C35.9707 38.2482 37.3162 38.0686 37.6102 38.0238C38.1286 37.9467 38.8064 37.8903 38.9608 37.8458C39.3496 37.7359 39.149 37.336 39.0806 37.0269C39.0132 36.718 38.7104 36.3691 38.3464 36.4626C37.9828 36.5586 37.6327 36.6009 37.1567 36.6932C36.6782 36.788 35.9756 36.8863 35.9756 36.8863C35.9756 36.8863 35.3951 37.0119 35.2527 37.3459C35.1134 37.6663 34.8367 38.2008 35.4049 38.2218Z" fill="white"/>
<path d="M33.7479 40.1831C35.0212 40.254 38.4301 40.2042 38.769 40.2303C39.1104 40.2541 40.0649 40.3986 40.1995 39.9675C40.3367 39.5426 40.496 38.7815 39.5415 38.7589C38.5873 38.7366 37.9516 38.9496 36.2722 38.926C34.59 38.9022 33.79 38.7156 33.79 38.7156C33.79 38.7156 32.9865 38.5934 32.6838 39.0381C32.417 39.4255 32.4768 40.1107 33.7479 40.1831Z" fill="white"/>
<path d="M17.4303 47.4934C17.7968 47.6565 18.1979 47.4461 18.3972 46.8543C18.5792 46.3207 19.0899 45.369 19.3443 45.1149C19.738 44.7236 19.7565 44.7521 19.9299 44.671C20.1602 44.559 20.5254 44.6649 20.2611 45.0774C20.0667 45.3825 19.885 45.6905 19.6421 46.1214C19.4638 46.4356 19.2942 46.6374 19.1896 46.98C19.08 47.3304 18.9593 47.9197 18.9454 48.3805C18.9305 48.803 19.5437 49.2341 19.9773 48.9113C20.2562 48.7033 20.5428 48.1412 20.7947 47.6182C21.0225 47.1508 21.2057 46.7333 21.344 46.3857C21.587 45.7791 21.7439 45.4625 21.9633 45.2829C22.2846 45.019 22.2822 44.9304 22.6186 44.8432C22.9501 44.7559 22.8627 45.2657 22.8627 45.2657C22.7792 45.4888 22.5238 45.8212 22.3957 46.0395C22.2336 46.3134 22.058 46.6337 21.9058 47.2245C21.7489 47.8176 21.5648 48.8377 21.8513 49.1231C22.2324 49.5007 22.8842 49.036 23.0036 48.7582C23.4571 47.6977 23.4623 47.1434 23.5743 46.7222C23.6554 46.4193 23.912 45.8475 24.0491 45.6545C24.1287 45.5396 24.4292 45.0104 24.652 44.9329C24.9387 44.8332 25.1256 44.7933 25.4596 44.8782C25.6812 44.9342 25.6762 45.0487 26.0052 45.1063C26.7403 45.2357 27.2089 44.6912 27.3885 44.1913C27.6577 43.4377 27.9415 43.2183 28.1386 43.0103C28.5447 42.5804 28.9187 41.9697 28.6543 41.6596C28.3876 41.3445 27.8718 42.239 27.3312 42.4872C27.1216 42.5804 26.8189 42.8159 25.801 42.7561C24.6072 42.5906 22.9489 42.2628 21.4611 42.3274C19.454 42.4135 17.9863 44.1319 17.7405 44.5726C17.4716 45.0561 17.2809 45.324 17.0454 46.4466C16.9543 46.8878 17.1586 47.3761 17.4303 47.4934Z" fill="white"/>
<path d="M34.0996 19.9669C33.297 19.9669 32.6479 20.7271 32.6479 21.6666C32.6479 22.6035 33.0964 23.3661 33.8999 23.3661C33.9076 23.3661 33.9785 23.3611 33.986 23.2813C34.0036 23.2154 33.9414 23.1455 33.95 23.1455C33.773 23.0558 33.5338 22.8079 33.5338 22.3406C33.5338 21.9867 33.6821 21.6777 33.9101 21.4759L34.1144 21.3775C34.1144 21.3775 34.3586 21.2515 34.4459 21.4347C34.4858 21.5257 34.5381 21.7213 34.5406 21.8782C34.5455 22.0366 34.4957 22.3069 34.5753 22.2608C34.7 22.1897 34.7288 22.0528 34.7462 21.9519C34.7523 21.907 34.8009 21.7001 34.7923 21.502C34.7923 21.4547 34.8148 21.411 34.8594 21.4086C34.9095 21.4049 34.9343 21.4198 34.9541 21.4347C34.9891 21.4621 35.0488 21.5208 35.0838 21.5568C35.1934 21.725 35.2456 21.9593 35.2184 22.2695C35.1908 22.4739 35.0639 22.5686 35.2097 22.6609C35.3642 22.6808 35.4812 22.3817 35.4951 22.3244C35.536 22.1698 35.5524 21.8358 35.5524 21.6666C35.5523 20.7271 34.9005 19.9669 34.0996 19.9669Z" fill="white"/>
<path d="M28.4262 23.412C28.4352 23.412 28.4998 23.4058 28.5073 23.3361C28.525 23.2725 28.4674 23.2064 28.4748 23.2064C28.3104 23.123 28.0885 22.8937 28.0885 22.4588C28.0885 22.1324 28.2244 21.8421 28.4364 21.6576L28.6246 21.5668C28.6246 21.5668 28.8536 21.4495 28.9334 21.6191C28.9722 21.705 29.0208 21.8858 29.0245 22.0315C29.0269 22.1773 28.9809 22.4289 29.0529 22.3865C29.1715 22.3206 29.1974 22.1935 29.2126 22.1C29.22 22.0577 29.2649 21.8657 29.2547 21.68C29.2572 21.6376 29.2785 21.5979 29.321 21.5954C29.367 21.5928 29.3881 21.6078 29.407 21.6191C29.4392 21.644 29.4931 21.6988 29.5264 21.7323C29.6286 21.8869 29.6784 22.1062 29.6524 22.3928C29.6261 22.5847 29.5091 22.6719 29.6447 22.7591C29.7883 22.7766 29.8954 22.4974 29.9102 22.4451C29.9477 22.3006 29.9625 21.9891 29.9625 21.832C29.9625 20.9623 29.3568 20.2546 28.6119 20.2546C27.8693 20.2546 27.2637 20.9623 27.2637 21.832C27.2637 22.7042 27.6825 23.412 28.4262 23.412Z" fill="white"/>
<path d="M18.5391 34.5775C18.5791 34.808 18.1829 35.5369 18.0681 35.4596C18.0681 35.4596 17.3754 35.6128 17.5064 35.1992C17.637 34.7855 17.8877 34.6659 18.0108 34.6459C18.1353 34.6237 18.2452 34.6062 18.3374 34.5525C18.4268 34.4989 18.5017 34.3445 18.5391 34.5775ZM22.7258 36.1574C22.6361 36.2198 22.5586 36.7218 22.5488 36.8577C22.5389 36.9973 22.3219 37.4609 21.9134 37.4358C21.7837 37.4284 21.6416 37.4795 21.5609 37.0496C21.4797 36.6134 22.3866 36.0378 22.3866 36.0378C22.5986 35.9566 22.818 36.0938 22.7258 36.1574ZM35.8334 22.7306C35.6415 23.1268 35.3787 23.4968 35.0435 23.5991C34.7198 23.695 34.1264 23.8221 33.617 23.7298C33.1645 23.6489 32.9466 23.457 32.6276 23.1055C32.1181 22.5436 32.1156 20.6622 33.0648 19.9432C33.2045 19.8386 33.6928 19.6005 33.7702 19.5832C34.1664 19.5581 34.7095 19.6306 35.1085 19.9195C35.557 20.246 35.5381 20.3407 35.8036 20.7568C36.0692 21.3824 36.0602 22.257 35.8334 22.7306ZM57.0742 41.7008C56.9647 40.4361 55.7446 39.9864 54.4013 39.5578C52.8538 39.0641 50.868 39.503 50.868 39.503C50.868 39.503 50.5814 38.8214 49.7092 38.3504C49.1521 38.0501 48.0394 37.776 47.1149 37.7487C46.6687 37.7323 45.0064 38.0452 44.3459 38.2891C44.25 38.3269 43.8839 38.4052 43.9548 38.0338C44.0098 37.7487 44.6951 37.3049 45.2082 37.1706C46.3348 36.8766 47.6656 36.7367 48.2762 37.0121C49.3205 37.4819 48.6637 35.7113 49.0113 34.7981C49.3601 33.8859 48.0518 33.6119 47.6132 33.4311C47.1771 33.2479 47.0029 32.6997 47.2645 32.4268C47.526 32.1527 47.7878 31.6979 47.7017 31.0575C47.6132 30.4196 46.6525 30.4196 46.2163 30.2351C45.7765 30.0531 45.9535 29.5063 46.4783 29.1424C47.0029 28.7774 47.4387 27.6808 47.2645 27.1352C47.0899 26.5881 46.4783 26.7687 46.0408 26.7687C45.6044 26.7687 45.3404 26.5881 45.1661 26.2218C44.9916 25.8567 45.4289 25.6748 45.6044 25.2187C45.7765 24.764 45.5883 24.3677 44.9043 24.3055C44.4694 24.2668 44.0309 24.1235 44.0309 23.6674C44.0309 23.2103 44.9043 22.5723 44.6416 21.933C44.3809 21.2951 43.5936 21.6602 43.2447 21.6602C42.8956 21.6602 42.9804 21.3861 43.1574 20.1089C43.332 18.8305 42.6517 18.8991 41.8417 19.0586C41.2397 19.1782 40.7987 19.8361 40.1843 19.7439C39.5752 19.6516 38.2681 17.7228 37.6575 17.2681C37.0472 16.8109 36.2249 15.6121 34.8602 16.8531C34.6461 17.0475 34.2062 17.5572 33.8723 17.8251C33.7603 17.8836 33.6455 17.9509 33.5247 18.0281C32.9352 18.4069 32.2536 18.5577 31.8862 18.5577C31.1013 18.5577 30.5232 16.5317 29.5612 16.3473C28.6017 16.1641 27.954 17.0688 27.1663 18.7919C26.9307 19.309 26.6754 19.9209 26.8348 20.5164C27.0304 21.2391 27.4055 19.8872 28.4473 19.8872C28.9332 19.8872 29.3071 20.0092 29.5876 20.1962C30.1469 20.5724 30.4372 21.1893 30.3811 21.7226C30.3223 22.2933 30.3186 22.8527 29.5937 23.4482C28.806 23.918 27.959 23.7622 27.6098 23.5728C27.4282 23.4844 27.3582 23.4508 27.2013 23.2676C27.1502 23.2091 27.0369 23.0868 26.972 22.8912C26.9221 22.738 26.8262 22.6532 26.7191 22.7854C26.6058 22.9299 26.5708 23.1467 26.5708 23.1442C26.4613 23.7049 25.9453 25.1266 25.5067 25.7657C25.0707 26.405 23.7599 27.0429 23.2341 27.499C22.7107 27.9562 21.6816 28.8721 21.3127 30.0531C20.9466 31.2356 20.5253 31.9733 20.0917 32.3359C19.6556 32.6985 17.637 33.77 17.1189 34.5711C16.7923 35.0832 17.0016 34.9374 16.7698 35.5282C16.2641 36.814 17.9038 37.5342 18.4296 37.8106C18.953 38.0848 19.992 38.5472 20.4754 39.3733C20.6423 39.6537 21.2266 40.1832 22.798 39.8168C24.3718 39.4516 24.8714 37.8558 24.8714 37.8558C24.9574 37.5829 25.0707 37.26 25.4195 37.26C25.767 37.26 26.0314 37.4445 26.4687 37.4445C26.9048 37.4445 27.2137 36.7518 27.189 36.1137C27.1716 35.7312 27.0769 35.8671 27.0206 35.5469C26.9921 35.3848 27.3134 35.3886 27.3883 35.4907C27.4644 35.5955 27.4167 35.649 28.4783 36.0752C29.7405 36.5846 30.4183 34.2186 30.6826 33.5793C30.9445 32.9414 30.9243 31.6978 30.9243 31.2407C30.9243 30.7847 31.0117 30.6924 31.3629 30.5118C31.7104 30.3273 31.9736 30.7847 33.4589 30.7847C34.9451 30.7847 34.4205 29.0502 34.5078 28.1393C34.5651 27.5375 34.4555 27.2185 34.0482 27.0678C33.8699 27.0004 33.5334 26.7201 33.6854 26.5407C34.0218 26.147 34.2462 26.6902 34.5975 26.78C34.9463 26.8709 35.1382 26.9358 35.7102 26.6529C36.1574 26.4312 36.6009 25.4505 36.8229 25.1989C37.1095 24.8723 37.4781 26.2218 37.1268 26.7687C36.778 27.317 35.881 27.6597 35.5294 28.4821C35.1806 29.302 35.2502 30.9965 35.2305 31.3988C35.2082 31.8823 34.4555 31.9447 34.2137 31.9272C33.2193 31.8586 32.6786 31.4225 32.1552 31.4225C31.6322 31.4225 31.5075 32.7121 31.5075 33.0773C31.5075 33.4436 31.7005 33.8511 31.3505 34.3082C30.9989 34.7655 30.5656 35.133 30.3898 35.6813C30.2152 36.2284 30.1818 36.6184 29.6584 36.9835C29.1326 37.3472 28.4473 36.7465 28.0895 36.6982C27.6111 36.6357 27.3495 37.5889 27.1502 38.1361C27.0279 38.4772 26.1672 39.2597 25.3795 39.5339C24.0477 40 24.0975 40.4061 24.0489 40.658C23.9604 41.1151 24.2631 41.6732 25.533 41.8515C26.0573 41.9264 27.3783 41.3195 27.6398 40.9057C28.1954 40.036 28.3823 40.1993 28.8212 40.0174C29.2582 39.8329 29.9014 39.7024 30.3062 39.5117C32.8918 38.2855 34.6123 37.0496 35.1357 36.5937C35.6615 36.1375 35.8284 35.6254 35.7386 35.2616C35.6516 34.8953 35.8695 34.7333 36.1314 34.9165C36.3929 35.0996 37.8396 35.3425 39.4143 34.0641C40.9869 32.7871 40.9733 29.5973 40.9733 29.1425C40.9733 28.6853 41.1463 28.3214 41.6722 28.8685C42.1955 29.4154 41.9587 32.2077 40.9532 33.9694C40.4885 34.7819 39.9253 35.0722 39.5752 35.8945C39.2227 36.7131 40.7987 38.1747 40.9733 38.6309C41.1463 39.0868 41.0606 40.1833 40.9733 41.3682C40.8848 42.5533 41.0516 42.8534 41.6635 43.1273C42.2778 43.4016 42.2366 43.0276 42.7687 42.6739C43.4391 42.2317 44.786 42.0286 45.3193 42.0422C47.9172 42.1097 48.6024 42.8259 48.4879 43.1936C48.3548 43.6174 47.0951 42.8659 44.9965 42.9581C42.9009 43.0503 41.3283 45.05 41.0193 45.475C40.6504 45.9836 40.3963 46.5066 40.2081 47.6069C40.1109 48.1702 40.2081 48.4867 40.4923 48.6088C40.8773 48.7759 41.5889 48.3023 41.7968 47.688C41.9862 47.1299 42.4746 46.3995 42.7414 46.1319C43.15 45.7267 43.414 45.4651 43.5936 45.3816C43.965 45.2148 43.9312 45.6246 43.6483 46.1964C43.484 46.5243 43.4029 46.7397 43.2583 47.2395C43.1426 47.7041 43.1052 47.8697 43.0553 48.1129C43.0005 48.402 42.9432 48.54 42.9903 49.0173C43.0342 49.4298 43.2274 49.84 43.6297 49.7812C43.9897 49.7276 44.4769 49.0835 44.7075 48.6524C44.8282 48.4243 44.857 48.0207 45.0489 47.359C45.2543 46.649 45.2169 46.5914 45.3355 46.2578C45.5175 45.7403 45.6905 45.4738 46.0408 45.3816C46.3896 45.2909 46.3782 46.0219 46.3782 46.0219C46.3782 46.225 46.3348 46.3173 46.133 47.0238C46.0244 47.3989 45.8313 48.2987 45.7765 48.8394C45.7143 49.4748 45.9832 49.8035 46.4882 49.6543C47.4452 49.3689 47.5061 48.4095 47.6655 47.8103C47.7327 47.5632 47.8351 46.9117 47.9146 46.6947C48.0357 46.3711 48.088 46.1204 48.2638 45.7879C48.4355 45.4512 48.6299 45.242 49.1384 45.3465C49.6491 45.4539 51.1168 46.0219 53.24 45.5997C54.4712 45.358 55.7622 44.6551 56.491 43.6322C53.4569 52.2445 45.2168 58.4395 35.5454 58.4395C23.3088 58.4395 13.3533 48.5227 13.3533 36.3344C13.3533 24.1486 23.3088 14.2317 35.5454 14.2317C47.7852 14.2317 57.7408 24.1486 57.7408 36.3344C57.7409 38.1858 57.5066 39.9839 57.0742 41.7008ZM35.5455 12.9731C22.6122 12.9731 12.0898 23.4545 12.0898 36.3343C12.0898 49.2177 22.6122 59.6991 35.5455 59.6991C48.483 59.6991 59.0043 49.2177 59.0043 36.3343C59.0043 23.4545 48.483 12.9731 35.5455 12.9731Z" fill="white"/>
<path d="M51.0873 34.8925C51.065 34.93 51.0524 34.9773 51.0474 35.0296C51.0412 35.0832 51.0387 35.1556 51.0387 35.2477V35.5979H50.9765C50.888 35.5979 50.8205 35.6153 50.7747 35.6539C50.7283 35.6926 50.7061 35.7412 50.7061 35.8022C50.7061 35.8609 50.7283 35.9107 50.7723 35.948C50.8169 35.9879 50.8794 36.0079 50.9642 36.0079H51.0388V37.113C51.0388 37.2912 51.0549 37.4346 51.0837 37.5404C51.1097 37.6474 51.1722 37.7311 51.2669 37.7932C51.3579 37.8533 51.4972 37.883 51.678 37.883C51.8686 37.883 52.0144 37.857 52.1165 37.8093C52.2189 37.7623 52.2685 37.6911 52.2685 37.5976C52.2685 37.544 52.2499 37.4979 52.2125 37.462C52.1763 37.4255 52.1342 37.4069 52.0869 37.4069C52.0543 37.4069 52.0095 37.4131 51.9522 37.4242C51.8938 37.4357 51.8477 37.4406 51.8127 37.4406C51.7505 37.4406 51.7055 37.427 51.678 37.3958C51.6508 37.366 51.6356 37.327 51.627 37.2775C51.6207 37.2298 51.6183 37.159 51.6183 37.072V36.0078H51.7266C51.8402 36.0078 51.9287 35.9916 51.991 35.9617C52.0507 35.9306 52.0816 35.8769 52.0816 35.8022C52.0816 35.7412 52.0618 35.6926 52.017 35.6539C51.9745 35.6152 51.9124 35.5979 51.8313 35.5979H51.6183V35.2003C51.6183 35.1044 51.6134 35.0296 51.6034 34.9773C51.5908 34.9225 51.566 34.8789 51.5285 34.8427C51.4676 34.7866 51.4013 34.7593 51.3268 34.7593C51.2745 34.7593 51.2271 34.7718 51.186 34.7968C51.1421 34.8217 51.1096 34.8528 51.0873 34.8925Z" fill="white"/>
<path d="M52.7919 37.883C52.8816 37.883 52.9537 37.8533 53.0076 37.7908C53.0612 37.7299 53.0884 37.6376 53.0884 37.5179V36.7379C53.0884 36.4952 53.1185 36.3094 53.1794 36.1811C53.2379 36.0502 53.3627 35.9855 53.5534 35.9855C53.648 35.9855 53.7189 36.0116 53.7601 36.0639C53.805 36.1138 53.8313 36.1811 53.8412 36.2608C53.8511 36.3417 53.8573 36.4537 53.8573 36.5986V37.5179C53.8573 37.6389 53.8836 37.7312 53.9384 37.7908C53.9932 37.8533 54.0631 37.883 54.1501 37.883C54.2411 37.883 54.3123 37.8533 54.3671 37.7908C54.4244 37.7311 54.4519 37.6389 54.4519 37.5179V36.7531C54.4519 36.5052 54.4717 36.3343 54.5141 36.2359C54.5515 36.1574 54.6063 36.0988 54.6735 36.054C54.7434 36.0079 54.8143 35.9855 54.8901 35.9855C54.9836 35.9855 55.0548 36.0104 55.1021 36.0615C55.1482 36.1138 55.1779 36.1749 55.1881 36.2509C55.1968 36.3244 55.2042 36.4228 55.2042 36.5485V37.5179C55.2042 37.6376 55.2318 37.7299 55.2878 37.7908C55.3425 37.8533 55.415 37.883 55.5032 37.883C55.5929 37.883 55.6665 37.8533 55.7214 37.7933C55.7761 37.7311 55.8049 37.6389 55.8049 37.5191V36.3931C55.8049 36.1699 55.7798 36.0041 55.7301 35.9007C55.674 35.7862 55.588 35.6989 55.4759 35.6379C55.3599 35.5756 55.2243 35.5457 55.0646 35.5457C54.9303 35.5457 54.8068 35.5731 54.6932 35.6303C54.5811 35.6853 54.4765 35.7724 54.3806 35.8908C54.3121 35.7749 54.2261 35.689 54.1227 35.6316C54.0178 35.5744 53.8934 35.5457 53.7476 35.5457C53.608 35.5457 53.4811 35.5731 53.3651 35.6291C53.2505 35.6853 53.1432 35.7712 53.0436 35.8908V35.836C53.0436 35.7438 53.0175 35.6715 52.964 35.6204C52.9117 35.5667 52.8467 35.542 52.7671 35.542C52.686 35.542 52.6201 35.568 52.5675 35.6254C52.5204 35.6814 52.4954 35.765 52.4954 35.872V37.519C52.4954 37.6388 52.5229 37.7311 52.5789 37.7907C52.6349 37.8533 52.7049 37.883 52.7919 37.883Z" fill="white"/>
</g>
<defs>
<clipPath id="clip0_130_376">
<rect width="50.5714" height="50.3682" fill="white" transform="translate(10.2856 11.1428)"/>
</clipPath>
</defs>
</svg>
