<svg width="72" height="72" viewBox="0 0 72 72" fill="none" xmlns="http://www.w3.org/2000/svg">
<circle cx="36" cy="36" r="36" fill="#002A5F"/>
<path d="M47.6111 23.1555H48.7122C49.7536 23.1545 50.2372 24.1254 50.2372 24.8597V36.2879C50.2383 37.1114 49.7536 37.8749 48.8208 37.8694H47.6111V23.1555ZM48.7191 22.7318H44.3389V23.1555H45.4979V48.8444H44.3389V49.2988H49.2806V48.8444H47.6109V38.3916H49.0507C51.1456 38.3916 52.3379 37.2882 52.3379 35.805V25.5392C52.3381 24.0597 51.3089 22.7295 48.7191 22.7318Z" fill="white"/>
<path d="M25.5352 23.0728C25.5352 23.4965 25.2881 23.4646 25.0901 23.3255C24.3785 22.8258 23.5061 22.4664 22.7268 22.4722C21.4565 22.4814 19.6362 23.0965 19.6304 25.7749V45.4679C19.6497 48.8885 21.2957 49.5276 22.9183 49.5448C24.1815 49.5569 24.7829 48.8899 25.294 48.6672C25.5636 48.5496 25.8585 48.8217 25.8585 49.3271H26.3831V36.7985H27.4355V36.3772H22.9906V36.7985H24.28V47.5752C24.28 48.449 23.6864 49.1103 22.9385 49.1117C22.2181 49.1117 21.6661 48.4274 21.6661 47.5752V24.9919C21.665 24.3779 21.774 22.9505 22.7233 22.9573C24.5507 22.9709 25.5207 28.3149 25.5342 31.0794H26.0587V22.717H25.5367L25.5352 23.0728Z" fill="white"/>
<path d="M33.604 37.9056L34.8844 26.4421L36.1916 37.9056H33.604ZM36.2451 38.3745L37.4358 48.8386H36.2654V49.2928H40.6635V48.8386H39.5047L36.5825 22.7258H34.711L31.9965 47.3885C31.8367 48.2744 31.7539 48.8202 30.4805 48.8393V49.293H33.7785V48.8388C32.8451 48.8395 32.4225 48.2427 32.5142 47.6084L33.5511 38.3746H36.2451V38.3745Z" fill="white"/>
</svg>
