<svg width="20" height="20" viewBox="0 0 20 20" fill="none" xmlns="http://www.w3.org/2000/svg">
<path d="M15.8335 18.3335H4.16683C3.70659 18.3335 3.3335 17.9604 3.3335 17.5002V9.51188C3.3335 9.29088 3.42137 9.07895 3.57766 8.92271L9.411 3.08938C9.5673 2.9329 9.77941 2.84497 10.0006 2.84497C10.2218 2.84497 10.4339 2.9329 10.5902 3.08938L16.4235 8.92271C16.58 9.07878 16.6676 9.29089 16.6668 9.51188V17.5002C16.6668 17.9604 16.2937 18.3335 15.8335 18.3335ZM8.3335 12.5002H11.6668V16.6669H15.0002V9.85688L10.0002 4.85688L5.00016 9.85688V16.6669H8.3335V12.5002Z" fill="white"/>
</svg>
