<svg width="72" height="72" viewBox="0 0 72 72" fill="none" xmlns="http://www.w3.org/2000/svg">
<circle cx="36" cy="36" r="36" fill="#0058AB"/>
<g clip-path="url(#clip0_130_356)">
<path fill-rule="evenodd" clip-rule="evenodd" d="M65.1343 47.3143H6.85693V24H65.1427V47.3143H65.1343Z" fill="#0058AB"/>
<path fill-rule="evenodd" clip-rule="evenodd" d="M8.02246 35.6572C8.02246 41.3881 19.7474 46.1486 36.0038 46.1486C52.2602 46.1486 63.9768 41.3881 63.9768 35.6572C63.9768 29.9263 52.2518 25.1658 36.0038 25.1658C19.7557 25.1658 8.02246 29.9263 8.02246 35.6572Z" fill="#FBD914"/>
<path d="M33.9295 39.1571C34.1133 39.4181 34.3138 39.6627 34.5477 39.8829H28.2405C28.2405 39.6382 27.9983 39.1408 27.7309 38.7494C27.4636 38.358 26.0183 36.2134 26.0183 36.2134V39.1571C26.0183 39.4017 26.0183 39.6382 26.1437 39.8829H20.8891C21.0144 39.6382 21.0144 39.4017 21.0144 39.1571V32.1606C21.0144 31.9159 21.0144 31.6795 20.8891 31.4348H26.1437C26.0183 31.6795 26.0183 31.9159 26.0183 32.1606V35.2185C26.0183 35.2185 27.6975 33.082 28.0818 32.5846C28.3741 32.2095 28.7334 31.6794 28.7334 31.4348H34.2136C33.8376 31.6795 33.4199 32.1198 33.0774 32.5275C32.7766 32.8863 31.0725 34.9168 31.0725 34.9168C31.0725 34.9168 33.5953 38.676 33.9295 39.1571H33.9295ZM35.5836 32.1606V39.1571C35.5836 39.4017 35.5836 39.6382 35.4582 39.8829H45.5999V37.5344C45.3493 37.6567 45.107 37.6567 44.8564 37.6567H40.5876V36.5477H44.6893V34.7699H40.5876V33.6528H44.8564C45.107 33.6528 45.3493 33.6528 45.5999 33.767V31.4267H35.4582C35.5836 31.6795 35.5836 31.9159 35.5836 32.1606ZM59.6511 39.1571C59.7347 39.4262 59.8767 39.6708 60.0605 39.8829H54.5636C54.5887 39.6382 54.4968 39.4017 54.3966 39.1571C54.3966 39.1571 54.313 38.9614 54.1961 38.676L54.1459 38.5537H50.9798L50.9297 38.6841C50.9297 38.6841 50.8377 38.9206 50.7542 39.1653C50.6707 39.4099 50.5788 39.6464 50.6122 39.891H46.2765C46.4537 39.6771 46.5871 39.4305 46.6692 39.1653L49.2672 32.1687C49.3592 31.9241 49.451 31.6876 49.4176 31.443H56.744C56.6772 31.6876 56.8108 31.9241 56.9027 32.1687C57.1199 32.6988 59.4673 38.6841 59.6511 39.1571ZM53.4526 36.7679L52.684 34.8107C52.6172 34.6314 52.5587 34.4438 52.5169 34.2563C52.4835 34.4452 52.4331 34.6308 52.3665 34.8107C52.3415 34.8923 52.0156 35.7486 51.6397 36.7679H53.4526ZM18.3996 31.4348H12.6855C12.8109 31.6795 12.8109 31.9159 12.8109 32.1606V39.1571C12.8109 39.4017 12.8109 39.6382 12.6855 39.8829H18.3996C18.2743 39.6382 18.2743 39.4017 18.2743 39.1571V32.1606C18.2743 31.9159 18.2743 31.6795 18.3996 31.4348ZM57.8968 32.1035C57.8717 31.5082 58.3479 31.0108 58.9578 30.9945H59.033C59.6511 30.9863 60.1607 31.4593 60.1691 32.0627V32.1035C60.1858 32.7151 59.6929 33.2288 59.058 33.2451C58.4314 33.2615 57.9051 32.7803 57.8885 32.1606C57.8968 32.1442 57.8968 32.1198 57.8968 32.1034V32.1035ZM58.1224 32.1035C58.1224 32.5927 58.5317 32.9923 59.033 32.9923C59.5342 32.9923 59.9435 32.5927 59.9435 32.1035C59.9435 31.6142 59.5342 31.2146 59.033 31.2146C58.5484 31.1983 58.1391 31.5653 58.1224 32.0382V32.1035ZM58.8074 32.764H58.6069V31.4267H59.1165C59.3588 31.4348 59.5425 31.6223 59.5425 31.8589C59.5425 32.0219 59.4506 32.1687 59.3002 32.2503L59.5927 32.764H59.3671L59.0997 32.2911H58.8074V32.764ZM58.8074 32.1035H59.0831C59.2167 32.1117 59.3337 32.0137 59.3337 31.8833C59.3337 31.7528 59.2418 31.6387 59.1081 31.6387H58.8074V32.1035Z" fill="#0058A3"/>
</g>
<defs>
<clipPath id="clip0_130_356">
<rect width="58.2857" height="23.3143" fill="white" transform="translate(6.85693 24)"/>
</clipPath>
</defs>
</svg>
