<svg width="72" height="72" viewBox="0 0 72 72" fill="none" xmlns="http://www.w3.org/2000/svg">
<circle cx="36" cy="36" r="35" fill="white" stroke="#D11325" stroke-width="2"/>
<g clip-path="url(#clip0_130_334)">
<path d="M41.0287 45.7207C38.6485 46.3248 37.0842 46.9289 36.0537 47.4975C32.8199 46.0398 29.3018 45.2587 25.9259 45.2587C21.7682 45.2587 18.0014 46.3248 14.8031 47.8528L10.29 25.7139H41.0287V45.7207ZM19.4583 31.2575H16.7221V39.3597H22.194V37.4408H19.4583V31.2575ZM26.9564 38.1153C25.7127 38.1153 25.4284 37.5822 25.4284 36.0904H31.0082C31.0082 32.5013 30.1553 31.0081 26.9571 31.0081C23.4746 31.0081 22.5506 32.2163 22.5506 35.3435C22.5506 38.4002 23.8299 39.8566 26.7801 39.8566C29.694 39.8566 30.7601 38.7905 30.8305 37.1203H28.2719C28.2713 37.7961 28.0225 38.1153 26.9564 38.1153ZM25.4284 34.4913C25.4284 33.283 25.6771 32.6085 26.8498 32.6085C27.9876 32.6085 28.2713 33.1416 28.2713 34.4913H25.4284ZM34.0636 31.2575H31.0786L34.1703 39.3597H37.5462L40.7095 31.2575H37.7949L35.9122 36.5524L34.0636 31.2575Z" fill="#D11325"/>
<path d="M40.9927 25.7139H61.7102L56.8417 47.8528C53.6435 46.0043 50.7296 45.2232 46.5008 45.2232C44.1909 45.2232 42.6273 45.4357 40.9927 45.7207V25.7139ZM41.4902 31.222V39.3597H44.1554V31.222H41.4902ZM46.1809 31.755L46.0388 32.5717C46.8917 32.0386 47.247 31.5767 47.247 30.9725C47.247 30.2974 46.7851 29.942 46.1099 29.942C45.4347 29.942 45.0082 30.3336 45.0082 30.9015C45.0089 31.6484 45.5058 31.755 46.1809 31.755ZM49.9833 36.8011H47.1049C47.1404 38.7556 48.171 39.5367 51.2981 39.5367C54.2121 39.5367 55.3848 38.8971 55.3848 36.8715C55.3848 33.6733 49.9833 35.2724 49.9833 33.3535C49.9833 32.8915 50.5163 32.5006 51.2271 32.5006C51.974 32.5006 52.2576 32.8198 52.4353 33.4956H55.1716C55.136 31.7899 54.1417 31.0081 51.4047 31.0081C48.5619 31.0081 47.247 31.7899 47.247 33.5673C47.247 37.0854 52.6485 35.2013 52.6485 37.192C52.6485 37.7961 52.3287 38.0804 51.5469 38.0804C50.6229 38.0804 50.055 37.725 49.9833 36.8011ZM52.1865 47.7456C53.0394 47.7456 53.7501 48.4563 53.7501 49.3091C53.7501 50.162 53.0394 50.8727 52.1865 50.8727C51.3337 50.8727 50.6229 50.1975 50.6229 49.3091C50.6267 48.8956 50.7927 48.5001 51.0851 48.2077C51.3775 47.9153 51.773 47.7493 52.1865 47.7456ZM53.5014 49.3098C53.5014 48.5991 52.9334 48.0305 52.1865 48.0305C51.4403 48.0305 50.8717 48.5991 50.8717 49.3098C50.8717 50.0205 51.4758 50.6246 52.1865 50.6246C52.3593 50.6251 52.5305 50.5914 52.6902 50.5254C52.8499 50.4595 52.995 50.3627 53.1172 50.2405C53.2394 50.1183 53.3362 49.9732 53.4022 49.8135C53.4681 49.6538 53.5018 49.4826 53.5014 49.3098ZM51.6535 50.0916V48.528H52.0793C52.5057 48.528 52.8262 48.6346 52.8262 49.0255C52.8262 49.2038 52.7196 49.3453 52.4708 49.4875L52.7551 50.0916H52.4708L52.2221 49.6296H51.9733V50.0916H51.6535ZM52.4708 49.0255C52.4708 48.9189 52.328 48.8478 51.9733 48.8478V49.2387C52.2221 49.2387 52.4708 49.2387 52.4708 49.0255Z" fill="#D11325"/>
</g>
<defs>
<clipPath id="clip0_130_334">
<rect width="51.4286" height="25.1589" fill="white" transform="translate(10.2856 25.7142)"/>
</clipPath>
</defs>
</svg>
