<svg width="20" height="20" viewBox="0 0 20 20" fill="none" xmlns="http://www.w3.org/2000/svg">
<path d="M9.99984 17.5C8.94728 16.6022 7.97166 15.618 7.08317 14.5575C5.74984 12.965 4.1665 10.5934 4.1665 8.33337C4.16532 5.973 5.58671 3.84453 7.76739 2.94121C9.94808 2.03788 12.4582 2.53774 14.1265 4.20754C15.2236 5.29972 15.8381 6.78537 15.8332 8.33337C15.8332 10.5934 14.2498 12.965 12.9165 14.5575C12.028 15.618 11.0524 16.6022 9.99984 17.5ZM9.99984 4.16671C7.69979 4.16946 5.83593 6.03333 5.83317 8.33337C5.83317 9.30504 6.27234 10.9875 8.36234 13.4884C8.87745 14.1034 9.42402 14.6914 9.99984 15.25C10.5757 14.6921 11.1225 14.1049 11.6382 13.4909C13.7273 10.9867 14.1665 9.30421 14.1665 8.33337C14.1638 6.03333 12.2999 4.16946 9.99984 4.16671ZM9.99984 10.8334C8.61913 10.8334 7.49984 9.71409 7.49984 8.33337C7.49984 6.95266 8.61913 5.83337 9.99984 5.83337C11.3806 5.83337 12.4998 6.95266 12.4998 8.33337C12.4998 8.99642 12.2364 9.6323 11.7676 10.1011C11.2988 10.57 10.6629 10.8334 9.99984 10.8334Z" fill="#144056"/>
</svg>
