<svg width="20" height="20" viewBox="0 0 20 20" fill="none" xmlns="http://www.w3.org/2000/svg">
<path d="M9.99984 17.5002C8.94728 16.6024 7.97166 15.6181 7.08317 14.5577C5.74984 12.9652 4.1665 10.5935 4.1665 8.3335C4.16532 5.97312 5.58671 3.84466 7.76739 2.94133C9.94808 2.038 12.4582 2.53786 14.1265 4.20766C15.2236 5.29984 15.8381 6.78549 15.8332 8.3335C15.8332 10.5935 14.2498 12.9652 12.9165 14.5577C12.028 15.6181 11.0524 16.6024 9.99984 17.5002ZM9.99984 4.16683C7.69979 4.16959 5.83593 6.03345 5.83317 8.3335C5.83317 9.30516 6.27234 10.9877 8.36234 13.4885C8.87745 14.1035 9.42402 14.6915 9.99984 15.2502C10.5757 14.6922 11.1225 14.105 11.6382 13.491C13.7273 10.9868 14.1665 9.30433 14.1665 8.3335C14.1638 6.03345 12.2999 4.16959 9.99984 4.16683ZM9.99984 10.8335C8.61913 10.8335 7.49984 9.71421 7.49984 8.3335C7.49984 6.95279 8.61913 5.8335 9.99984 5.8335C11.3806 5.8335 12.4998 6.95279 12.4998 8.3335C12.4998 8.99654 12.2364 9.63242 11.7676 10.1013C11.2988 10.5701 10.6629 10.8335 9.99984 10.8335Z" fill="white"/>
</svg>
