<svg width="36" height="39" viewBox="0 0 36 39" fill="none" xmlns="http://www.w3.org/2000/svg">
<path d="M18.0012 13.1293C18.9406 13.1293 19.7317 12.6548 19.8346 12.0448L20.7659 1.83802C20.7659 0.827311 19.536 0 18.0012 0C16.4581 0 15.2363 0.827311 15.2363 1.83802L16.1758 12.0448C16.2747 12.6548 17.0616 13.1293 18.0012 13.1293Z" fill="#FCB61A"/>
<path d="M12.2876 16.3232C12.7531 15.5258 12.7264 14.6407 12.2238 14.246L3.52976 8.36311C2.62542 7.85278 1.27179 8.4608 0.497217 9.74861C-0.275357 11.0344 -0.118802 12.4777 0.767062 12.9781L10.3922 17.2961C11.0082 17.5193 11.8137 17.1047 12.2876 16.3152" fill="#FCB61A"/>
<path d="M23.7132 16.3149C24.2055 17.1044 25.011 17.519 25.6105 17.3077L35.2357 12.9778C36.1298 12.4675 36.2637 11.0381 35.5077 9.75228C34.7351 8.46447 33.3733 7.86044 32.471 8.36081L23.7749 14.2377C23.2928 14.6384 23.2579 15.5275 23.7234 16.3229" fill="#FCB61A"/>
<path d="M18.0012 25.8787C18.9406 25.8787 19.7317 26.3531 19.8346 26.9631L20.7659 37.1699C20.7659 38.1807 19.536 39 18.0012 39C16.4581 39 15.2363 38.1807 15.2363 37.1699L16.1758 26.9631C16.2747 26.3531 17.0616 25.8787 18.0012 25.8787Z" fill="#FCB61A"/>
<path d="M23.7132 22.6941C24.2055 21.9027 25.011 21.4801 25.6105 21.7093L35.2357 26.0313C36.1298 26.5316 36.2637 27.9729 35.5077 29.2608C34.7351 30.5386 33.3733 31.1466 32.471 30.6463L23.7749 24.7614C23.2928 24.3647 23.2579 23.4796 23.7234 22.6941" fill="#FCB61A"/>
<path d="M12.2876 22.6854C12.7531 23.4808 12.7264 24.3639 12.2238 24.7626L3.52976 30.6375C2.62542 31.1479 1.27179 30.5378 0.497217 29.26C-0.275357 27.9742 -0.118802 26.5309 0.767062 26.0305L10.3922 21.7086C11.0082 21.4813 11.8137 21.8999 12.2876 22.6854Z" fill="#FCB61A"/>
</svg>
