<svg xmlns="http://www.w3.org/2000/svg" viewBox="0 0 1458 1478">
  <path fill="#3e515f" fill-rule="evenodd" d="M506 164c-13 3-22 17-19 31a2103 2103 0 0 0 59 147c5 14 9 20 17 24 17 9 39-5 39-24 0-5-2-12-7-23a3588 3588 0 0 1-44-106c-15-36-16-40-20-44-6-5-17-7-25-5m433 2c-9 5-12 9-22 35a829 829 0 0 1-29 70 588 588 0 0 1-22 52c-4 9-4 11-4 18-1 12 4 20 14 25 5 3 15 4 21 2 6-1 12-7 15-12l13-33 43-104c7-18 9-26 8-32-1-9-8-18-16-22-5-2-16-1-21 1M726 363c-8 2-10 3-15 8-7 6-9 12-10 22 0 6 0 9 2 13 3 7 10 15 16 18 5 2 7 2 14 2 8 0 10-1 15-3 6-4 11-8 14-15 2-3 2-6 2-13s0-9-3-14c-6-14-21-21-35-18m-222 42c-34 1-37 1-45 4l-5 2c-5 2-15 9-19 13a71 71 0 0 0-20 42c-2 13-2 530 0 544 3 18 9 30 22 42 11 11 23 17 38 21l68 1c58-1 60-1 66-3 20-6 37-24 44-44l2-7 1-84 2-85 8 8a466 466 0 0 0 30 36 543 543 0 0 1 27 33 2708 2708 0 0 1 83 99c13 16 23 26 30 32a92 92 0 0 0 30 14l59 1c59 1 58 1 74-6 22-8 38-27 44-50 3-12 4-62 4-316-1-231-1-233-3-240-4-15-9-24-20-36-14-14-28-20-55-21-24-1-103 0-109 2-15 4-23 10-34 20-8 8-16 21-19 33-2 7-2 9-3 96l-1 89-12-13a1017 1017 0 0 1-36-43 3451 3451 0 0 0-106-127c-27-33-37-43-50-49-12-7-28-9-50-9l-45 1m-39 52-1 278c0 301 0 281 6 286l2 2h126l2-3c2-1 3-4 4-6l1-155 1-150 8 9a17622 17622 0 0 0 251 300l7 5h49l54-1c7-2 14-6 17-13l4-5V474l-2-4c-3-5-6-9-12-12l-5-2h-55l-57 1c-3 2-5 4-7 9-2 4-2 5-2 162l-1 158c-1 1-10-10-33-38a3842 3842 0 0 0-102-124 1090 1090 0 0 0-57-68 15086 15086 0 0 1-81-96l-4-4h-56l-57 1m-283 4c-13 5-18 11-18 26 0 13 4 18 21 27a158 158 0 0 1 13 8l11 6a16339 16339 0 0 0 132 73c7 4 14 6 21 4l9-4c6-4 11-13 11-21 0-15-7-22-35-37a1144 1144 0 0 1-72-40 586 586 0 0 0-49-27l-10-6c-13-8-19-10-26-10l-8 1m1083 0-3 1-17 9a1099 1099 0 0 1-74 41 753 753 0 0 0-57 32l-4 2-10 5c-9 5-15 10-18 17-7 16 4 35 21 38 6 0 14-2 22-7a853 853 0 0 1 60-33 1499 1499 0 0 0 76-41c22-13 23-13 29-18s8-10 8-20c0-7 0-9-2-13-3-6-9-11-14-13h-17M340 708c-11 4-18 12-21 22-2 6-1 16 2 22 5 9 14 17 25 19 10 2 19-2 27-11 12-14 12-32-2-45-8-9-21-11-31-7m756 1a33 33 0 0 0 0 59c6 4 19 3 27 0 6-3 12-9 15-15 3-8 3-21 0-29-8-16-26-22-42-15M352 872c-5 0-8 2-18 8a715 715 0 0 1-54 29 1264 1264 0 0 0-79 43l-12 6c-21 12-25 16-25 31 0 12 5 20 17 25 8 4 16 2 32-7a3087 3087 0 0 1 97-53l10-5 40-22c8-5 15-10 18-14 10-15-1-39-19-41h-7m745 1c-11 4-17 14-17 27 0 8 4 15 10 20l6 4 9 4a2805 2805 0 0 0 47 26l8 4a1284 1284 0 0 0 53 28l28 16c15 9 26 14 33 14 9 0 22-9 24-18 2-6 1-15-1-21-4-7-10-12-25-19a645 645 0 0 1-60-33 4969 4969 0 0 0-95-51c-5-2-16-2-20-1m-372 196c-11 3-19 11-23 21-3 7-3 10 0 19 3 8 10 16 18 20 4 2 7 2 12 2 13 1 20-3 27-13 4-6 5-11 5-19 0-16-9-27-25-30h-14m-162 45c-9 4-12 9-21 32a726 726 0 0 1-22 53 904 904 0 0 1-24 57c-9 25-10 28-10 32 2 23 30 33 47 17 4-5 11-17 11-20l10-26 18-43a1145 1145 0 0 1 22-52c6-15 8-20 8-26 0-10-8-21-18-24-6-3-17-2-21 0m314 0c-10 5-14 11-16 21 0 6 1 11 6 20a259 259 0 0 1 12 31 749 749 0 0 1 31 73l11 28c5 16 12 23 24 26 5 1 15-1 20-4 12-8 15-22 8-37a1033 1033 0 0 1-30-73 523 523 0 0 1-16-38 471 471 0 0 0-10-24c-6-15-10-20-19-24-5-2-16-1-21 1"/>
  <path fill="#f8b101" fill-rule="evenodd" d="M734 22c-1 0-2 183-1 271v68h-5c-8 1-14 5-20 11s-8 13-8 22c0 11 1 10 2 0 0-8 0-10 2-14 3-7 11-13 18-16 16-5 32 2 39 17 3 5 3 7 3 15 0 6 1 8 2 7l4-3 3-2 3-3 3-6 1-7 2-16a421 421 0 0 1 6-53 1007 1007 0 0 1 5-58 7326 7326 0 0 1 6-72c3-37 4-95 2-104-3-13-7-23-16-32a76 76 0 0 0-40-24c-10-2-10-2-11-1M261 180l-6 2-4 1-12 6-9 5c-4 2-4 4 2 9a1650 1650 0 0 1 66 71 3267 3267 0 0 1 110 118l2 4-3 3-5 2-1 1-1 4c-1 2-2 4-1 5l-2 1c-2 0-3 1-4 3l1 3c2 0 1 2-1 2l-1 2c1 2 0 3-2 3-2 1-3 3-1 5s4 1 6-4c12-23 42-46 69-52l10-2-6-7-8-9a1101 1101 0 0 1-59-68 410 410 0 0 1-36-42l-14-16c-14-17-31-34-37-37l-8-5c-13-7-33-11-45-8m962 35a2047 2047 0 0 0-45 48 2529 2529 0 0 1-106 110l-28 29 4 4 8 9c7 7 14 23 16 34l3 9 4-2a3045 3045 0 0 0 172-171c7-11 9-17 10-30 0-15-1-24-6-34-4-8-14-21-16-21l-16 15M963 405h8c3 0 1-1-4-1s-7 1-4 1m-582 24v8l1 5 3 3c1 6 2 6 4 0 1-5 3-14 1-13l-1 2-1 4c-1 2-2 3-3 2v-2l1-2v-3c2-4-2-7-5-4m-8 16c0 2 3 7 5 7 3 1 2-2-1-4l-3-2-1-1m92 12-1 278c0 301 0 281 6 286l2 2h126l2-3c2-1 3-4 4-6l1-155 1-150 8 9a17622 17622 0 0 0 251 300l7 5h49l54-1c7-2 14-6 17-13l4-5V474l-2-4c-3-5-6-9-12-12l-5-2h-55l-57 1c-3 2-5 4-7 9-2 4-2 5-2 162l-1 158c-1 1-10-10-33-38a3842 3842 0 0 0-102-124 1090 1090 0 0 0-57-68 15086 15086 0 0 1-81-96l-4-4h-56l-57 1m6 2h-5v11a52555 52555 0 0 0 2 547l4 4 31 1h29l1-16V861l3 1c4 0 5-2 1-2l-4-4a863 863 0 0 1 0-98 505 505 0 0 0 0-62 1640 1640 0 0 0 1-71l1 1 6 6 10 11 9 11 7 8 3 4 5 7a308 308 0 0 1 28 30l22 27a339 339 0 0 0 21 24l6 9a2191 2191 0 0 1 62 73c5 7 8 10 8 7l1-1 2 4c0 4 3 8 12 18l2 3 3 2 2 2c0 2 4 4 6 4 2 1 2 3 0 3v2l4 2 2 2 3 6 5 6c2 3 3 4 5 3 2 0 2 0 2 3 0 2 1 3 3 4s3 1 3 3c-1 2 1 6 4 5 3 0 3 0 3 3s3 8 7 13l6 6 5 4 1 2 1 2 2 3 2 2 1-1c-2-2 0-1 3 1l2 4c-1 2 3 8 6 9l3 3c2 3 5 6 8 7l4 1-2 1c-3-1-2 0 4 8 5 7 9 10 9 8l1-1 1 2 3 1c3 0 5 2 3 5-1 1-1 2 1 3l1 2c-1 0-2 0-1 1h1l2 1 4 3h5v-5l4-2c3-3 4-2 2 1s-2 3 0 3v3l-3 1s-2 1-2 3c-2 3-2 3 0 2h2v3c-1 0-2 1-1 2l2 1v-1c0-2 1-2 3-2 4 0 4 0 4-3s0-4-3-2-4 0-1-1l6-2 5-1 2-2 1 2 1 1 1-1 1-1 1 2-2 2h-9c-1 1 0 3 2 3l3 2c2 1 2 1 4-1 2-1 3-1 4 3 1 1 1 2-1 2h-8c0-3-3-2-5 0l-2 2h50l-1-98V467l1-8-31-1c-34 0-33 0-37 7l-2 5v160c0 118-1 160-2 160l-21-24a1517 1517 0 0 0-67-82l-12-15a2222 2222 0 0 1-68-81 2189 2189 0 0 1-95-114l-10-10-5-6h-51l-56 1m638 246c-2 1-1 1 2 1 6 0 15 4 20 9 7 6 9 13 9 23 0 8 0 10-2 15-5 10-15 17-27 18-7 0-7 0-3 1 3 0 5 1 5 3 1 4 3 7 6 10 8 5 12 6 30 7a3088 3088 0 0 1 149 12c39 4 70 5 82 3a73 73 0 0 0 54-63l1-5-146-1h-146l-2-6c-1-8-4-13-9-18-6-7-19-11-23-9m-774 3c-9 5-15 13-18 25l-2 5H27l-1 5c-1 14 11 38 25 49 15 12 26 16 47 16a242 242 0 0 0 35-2 10108 10108 0 0 0 147-11c47-3 52-4 58-7s11-9 11-13l2-2-4-2c-17-4-28-16-29-30-1-18 11-32 30-35l5-1h-6l-12 3m210 178 6 3c1-1-1-3-4-3h-2m334 113c-2 1-2 2-1 3l2-1 2-1 1-1c0-3-2-2-4 0m19 17c-1 3-1 3 2 3h2v-1l-1-1 3-1 3-1c0-2-1-2-4-2s-4 0-5 3m-515 2-7 6-5 7 1 4c0 1 1 1 3-1l5-2 2-1c0-1-1-2-2-1-2 0-2 0-2-2l1-2 1-2c0-2 1-2 2-2s2 2 2 5c0 4 3 10 4 8v-4l-1-6c0-5-1-8-2-8l-2 1m691 0-1 2c0 2 3 3 3 1l2-1-3 4c-3 2-4 4-4 6l-1 2-2 4-4 11-4 8 3 1 2 1c0 2-3 4-8 7l-6 5-2 4c-2 2-1 4 2 4l5 2c2 2 3 3 4 2l3-1c1 1-1 2-3 2s-3 1-3 2 5 7 12 13a577 577 0 0 1 55 58l18 20a2002 2002 0 0 1 90 102v2l4-2c6-4 18-22 21-33 7-21 3-45-11-59a182 182 0 0 0-30-29c1-1-4-6-9-11l-5-6a640 640 0 0 0-59-58 243 243 0 0 0-36-33l-2-4c-3-3-3-3-5-2-2 3-3 2-3 0l1-2 1-1-1-2-7-7-13-11c-3-2-3-2-4-1m-709 18-3 2v2c0 3 2 2 2 0l1-2 1 3c0 4 2 4 6 0l1-3c-1-1-1 0-2 1l-2 3v-4l1-3c0-2-4-1-5 1m12-1-2 5c-1 4-1 5 2 3h3c1 3 3 2 3 0l-2-3c-3 0-4-1-2-2l1-3h-3m-20 9-2 2v4c-2 0-1 2 1 2l2-2c0-2 1-2 3-2s3 0 3-2l-3-1c-2 1-3 1-3-1l-1-2v2m735 6c-3 1-2 1 1 2h3c0-3-2-4-4-2m10 5c-1 4-1 5 1 5 2 1 3 0 3-1l3-1c2 0 1-2-2-3l-3-1c0-2-2-1-2 1m-11 1v2c1 1 1 1 3-1l2-1 1-1c0-2-5-1-6 1m-21 4 1 2 1 3c0 1 1 2 2 1 3-1 3-2-1-5-3-2-3-3-3-1m23 3 1 2v1h3c4-1 4-4 0-4l-4 1m20 0v1l4 1c3 2 4 0 2-2h-6m-25 4c0 2 1 4 3 4 1 0 2-1 1-2 0-2-3-3-4-2m-23 1c-2 3-1 5 1 5 1 0 2-1 2-3 0-3-1-4-3-2m-9 2c0 2 2 5 4 5l1 1 1 1c0-1-3-7-5-8l-1 1m28 4c0 4 2 4 2 1 1-3 0-4-1-4s-2 1-1 3m9 1-1 1h10l-1-1-4-1-4 1m-688 13a1088 1088 0 0 1-60 63 954 954 0 0 1-36 38l-9 11a1707 1707 0 0 0-71 74c-3 0-2 3 1 5 17 13 46 17 64 11 18-7 33-20 67-58a845 845 0 0 1 48-52 783 783 0 0 1 47-53c17-18 19-21 19-22l-8-2c-16-4-30-10-43-20l-8-5c-1 0-6 4-11 10m684-7v2c1 2 2 2 6 1l2-1-5-2h-3m-10 1-1 2c0 2 0 2 1 1s2-2 4-1v-1c-1-2-3-2-4-1m-379 11v16l2 4c1 4 11 14 17 17l8 3 6 1c1 1 0 310-1 316-1 3 16 2 25-2 24-11 40-30 44-52a1097 1097 0 0 0-9-182c-3-34-10-89-13-103-2-8-4-11-8-14l-6-4c-1-1-1 0-1 6 0 8-1 13-5 19-7 10-14 14-27 13-9 0-16-3-23-10-6-7-10-17-9-25v-3m323 1c-2 0-2 1-2 3s0 2 3 1l3-3c2-2 2-2 0-2l-4 1m92 3c0 3 1 4 4 1 1-1 1-1-1-3l-3-2v4m-103 1-4 3c-2 2-2 2 1 2l3-1 2-3c2-2 1-3-2-1m-16 6-3 1h-4c-1 1-1 1 1 3s5 2 6 0l2-2c2 1 6-1 6-2 0-2-6-2-8 0m159-1 4 5c2 0 1-4-2-5h-2m22 34v4c1 2 1 2 6 0 3-2 3-2 0-2-3 1-3 1-3-1 0-3-1-3-3-1m24 15h5c0-1-1-2-3-2-3 0-3 0-2 2"/>
  <path fill="#ffcf02" fill-rule="evenodd" d="M717 21c-20 4-39 19-48 38-7 15-9 22-9 42a3793 3793 0 0 0 14 205c5 65 8 80 13 90 2 3 7 6 10 6s3 0 3-7c0-10 2-17 8-23s12-10 20-11h5v-68c-1-108 0-271 1-272a78 78 0 0 1 51 25c6 7 12 18 13 24 1 1 1 2 2 1a79 79 0 0 0-21-33 71 71 0 0 0-62-17M254 181c-15 4-25 11-36 22a69 69 0 0 0-9 79c6 10 29 34 78 83 91 90 97 96 99 93 1-1 4-14 3-15l-1 3-1 4-2-5-3-3-1-5v-6c-1 0 1-3 3-3s3 3 2 5v3l-1 2v2c1 1 2 0 3-2l1-4 1-2 1 5v3a102 102 0 0 1 21-35c-1-1-10 11-14 17a1675 1675 0 0 1-8 8c-2-1-3-4 0-5 2 0 3-1 2-3l1-2c2 0 3-2 1-2l-1-3c1-2 2-3 4-3l2-1c-1-1 0-3 1-5l1-4 1-1 5-2 3-3-2-4-5-7-13-14a1276 1276 0 0 0-53-57 3267 3267 0 0 0-105-111c-6-5-6-7-2-9l9-5 12-6 5-1c12-5 34-3 50 6l8 5c6 3 23 20 37 37a620 620 0 0 0 30 34 410 410 0 0 0 42 49l7 9a1101 1101 0 0 0 38 43l6 7-10 2c-8 2-25 9-24 10l7-3 16-5c13-3 12-3 12-4s-7-10-16-19a1949 1949 0 0 1-64-75l-64-71c-19-20-35-28-56-29-10 0-13 0-21 3m920 0c-8 1-16 5-23 9s-26 24-50 50a66663 66663 0 0 1-85 96c-15 15-30 34-30 36l6 3c12 3 16 4 23 8a118 118 0 0 1 50 47c3 6 7 20 7 23l2 5h1l-3-9c-2-11-9-27-16-34l-8-9-4-4 28-29a2529 2529 0 0 0 108-112l24-26 35-35c3 0 17 20 20 29 1 4 1 4 1 1-1-4-7-16-12-23a76 76 0 0 0-42-26c-10-2-23-2-32 0m87 65 1 13-1-21v8m-474 78a707 707 0 0 0-8 65l-3 6-3 3-4 3c-5 2-5 3 0 1 8-4 13-15 14-33a864 864 0 0 1 4-45m-351 61-4 3-18 14 7-5a161 161 0 0 1 18-13l-3 1m-63 60c0 2 3 7 5 7 3 1 2-2-1-4l-3-2-1-1m98 14h-5v11a52555 52555 0 0 0 2 547l4 4 31 1h29l1-16V861l3 1c4 0 5-2 1-2l-4-4a863 863 0 0 1 0-98 505 505 0 0 0 0-62 1640 1640 0 0 0 1-71l1 1 6 6 10 11 9 11 7 8 3 4 5 7a308 308 0 0 1 28 30l22 27a339 339 0 0 0 21 24l6 9a2191 2191 0 0 1 62 73c5 7 8 10 8 7l1-1 2 4c0 4 3 8 12 18l2 3 3 2 2 2c0 2 4 4 6 4 2 1 2 3 0 3v2l4 2 2 2 3 6 5 6c2 3 3 4 5 3 2 0 2 0 2 3 0 2 1 3 3 4s3 1 3 3c-1 2 1 6 4 5 3 0 3 0 3 3s3 8 7 13l6 6 5 4 1 2 1 2 2 3 2 2 1-1c-2-2 0-1 3 1l2 4c-1 2 3 8 6 9l3 3c2 3 5 6 8 7l4 1-2 1c-3-1-2 0 4 8 5 7 9 10 9 8l1-1 1 2 3 1c3 0 5 2 3 5-1 1-1 2 1 3l1 2c-1 0-2 0-1 1h1l2 1 4 3h5v-5l4-2c3-3 4-2 2 1s-2 3 0 3v3l-3 1s-2 1-2 3c-2 3-2 3 0 2h2v3c-1 0-2 1-1 2l2 1v-1c0-2 1-2 3-2 4 0 4 0 4-3s0-4-3-2-4 0-1-1l6-2 5-1 2-2 1 2 1 1 1-1 1-1 1 2-2 2h-9c-1 1 0 3 2 3l3 2c2 1 2 1 4-1 2-1 3-1 4 3 1 1 1 2-1 2h-8c0-3-3-2-5 0l-2 2h50l-1-98V467l1-8-31-1c-34 0-33 0-37 7l-2 5v160c0 118-1 160-2 160l-21-24a1517 1517 0 0 0-67-82l-12-15a2222 2222 0 0 1-68-81 2189 2189 0 0 1-95-114l-10-10-5-6h-51l-56 1M80 668c-29 6-48 25-54 56-3 11-2 19 0 29 2 8 8 22 10 22l-1-3c-6-11-9-22-9-29l1-5h288l2-5c1-7 4-13 9-18 4-5 14-10 20-10 5 0 5 0 5-3 0-6-11-15-22-18l-21-2a13741 13741 0 0 1-175-14H80m1249 0a2687 2687 0 0 1-132 10c-49 3-67 6-76 12-4 2-8 7-9 11-1 3-1 3 3 4 9 1 19 8 23 17 1 2 3 6 3 10l2 6h145l146 1c1 1 2 0 1-5-2-31-21-56-51-65-8-2-35-2-55-1m-217 108c2 9 10 14 26 17l18 1 28 2a3611 3611 0 0 0 201 11c11-4 27-15 33-23l-4 3a71 71 0 0 1-34 20c-12 2-43 1-82-3a990 990 0 0 0-83-7l-66-5c-18-1-22-2-29-7-4-2-7-7-7-10l-1-2v3m-763-1c0 4-5 10-11 13s-11 4-58 7a2523 2523 0 0 0-134 10l-4 1h4l14-1a957 957 0 0 1 61-5 3167 3167 0 0 1 90-6c24-1 29-3 36-12 3-4 5-9 3-9l-1 2m-313 2c0 1 14 16 20 20 16 12 35 15 68 11l6-1a351 351 0 0 0-31 1c-19 0-29-3-41-11-6-4-13-11-18-17l-4-3m509 109 6 3c1-1-1-3-4-3h-2m334 113c-2 1-2 2-1 3l2-1 2-1 1-1c0-3-2-2-4 0m19 17c-1 3-1 3 2 3h2v-1l-1-1 3-1 3-1c0-2-1-2-4-2s-4 0-5 3m-516 1c-9 5-151 147-166 165a57 57 0 0 0-15 38c0 11 2 21 8 33 10 21 23 33 45 39 9 2 12 2 22 2 20-1 33-7 50-23a1013 1013 0 0 0 13-15c-19 20-30 28-45 34-18 6-47 2-64-11-3-2-4-5-1-5l1-1 27-29a2080 2080 0 0 0 88-93 484 484 0 0 1 28-29 1891 1891 0 0 1 43-44l8 5 14 9 27 10-5-2c-15-5-30-13-40-22a92 92 0 0 1-30-50c-2-10-4-13-5-13l-3 2m690 2-3 12a97 97 0 0 1-73 70c-5 1-9 3-9 4a3701 3701 0 0 1 51 59l74 80c19 21 35 37 41 41 12 7 18 8 35 9 14 0 15 0 23-2 14-5 27-14 34-23l3-5-5 5-7 8-4 2v-2c0-5-2-8-8-14l-6-7-3-3c-2 0-4-2-4-3l-10-12-10-10-14-17a7429 7429 0 0 1-117-129c2 0 4-1 3-2l-3 1c-1 1-2 0-4-2l-5-2c-3 0-4-2-2-4l2-4 6-5c5-3 8-5 8-7l-2-1-3-1 4-8 4-11 2-4 1-2c0-2 1-4 4-6l3-4-2 1-2 1c-1 0-2-4 0-4 2-2 10 5 17 12l7 7 1 2-1 1-1 2c0 2 1 3 3 0 2-1 2-1 5 2l2 4 3 3c3 1 8 6 33 30l10 9 1 2v1l-1 1 2 2a640 640 0 0 1 62 61c2 0 11 9 29 28 12 12 17 31 14 49a90 90 0 0 1-4 15l5-13c2-10 1-26-4-36l-6-11a2984 2984 0 0 0-177-173l-2 3m-689-1-7 6-5 7 1 4c0 1 1 1 3-1l5-2 2-1c0-1-1-2-2-1-2 0-2 0-2-2l1-2 1-2c0-2 1-2 2-2s2 2 2 5c0 4 3 10 4 8v-4l-1-6c0-5-1-8-2-8l-2 1m-18 18-3 2v2c0 3 2 2 2 0l1-2 1 3c0 4 2 4 6 0l1-3c-1-1-1 0-2 1l-2 3v-4l1-3c0-2-4-1-5 1m12-1-2 5c-1 4-1 5 2 3h3c1 3 3 2 3 0l-2-3c-3 0-4-1-2-2l1-3h-3m-20 9-2 2v4c-2 0-1 2 1 2l2-2c0-2 1-2 3-2s3 0 3-2l-3-1c-2 1-3 1-3-1l-1-2v2m735 6c-3 1-2 1 1 2h3c0-3-2-4-4-2m10 5c-1 4-1 5 1 5 2 1 3 0 3-1l3-1c2 0 1-2-2-3l-3-1c0-2-2-1-2 1m-11 1v2c1 1 1 1 3-1l2-1 1-1c0-2-5-1-6 1m-21 4 1 2 1 3c0 1 1 2 2 1 3-1 3-2-1-5-3-2-3-3-3-1m23 3 1 2v1h3c4-1 4-4 0-4l-4 1m20 0v1l4 1c3 2 4 0 2-2h-6m-25 4c0 2 1 4 3 4 1 0 2-1 1-2 0-2-3-3-4-2m-23 1c-2 3-1 5 1 5 1 0 2-1 2-3 0-3-1-4-3-2m-9 2c0 2 2 5 4 5l1 1 1 1c0-1-3-7-5-8l-1 1m28 4c0 4 2 4 2 1 1-3 0-4-1-4s-2 1-1 3m9 1-1 1h10l-1-1-4-1-4 1m-4 6v2c1 2 2 2 6 1l2-1-5-2h-3m-10 1-1 2c0 2 0 2 1 1s2-2 4-1v-1c-1-2-3-2-4-1m-310 14c6 4 8 7 10 15a1036 1036 0 0 1 15 129l2 11v-10a1019 1019 0 0 0-13-117c-3-21-7-28-16-30l2 2m254-2c-2 0-2 1-2 3s0 2 3 1l3-3c2-2 2-2 0-2l-4 1m92 3c0 3 1 4 4 1 1-1 1-1-1-3l-3-2v4m-426 1c-6 8-9 19-13 56l-11 126c-5 70-6 107-3 118 7 25 27 46 51 53a97 97 0 0 0 24 1c-4 0-5-1-5-2 1-6 2-315 1-316l-6-1-8-3c-6-3-16-13-17-17l-2-4-1-8c0-7 0-7-3-7-2 0-4 1-7 4m323 0-4 3c-2 2-2 2 1 2l3-1 2-3c2-2 1-3-2-1m-541 5 4 2-4 5-3 5 4-4 4-6c0-1-4-3-7-3-2 0-1 1 2 1m525 1-3 1h-4c-1 1-1 1 1 3s5 2 6 0l2-2c2 1 6-1 6-2 0-2-6-2-8 0m159-1 4 5c2 0 1-4-2-5h-2m22 34v4c1 2 1 2 6 0 3-2 3-2 0-2-3 1-3 1-3-1 0-3-1-3-3-1m24 15h5c0-1-1-2-3-2-3 0-3 0-2 2m-404 108 1 24a1123 1123 0 0 1 3 114l-1 5 2-6 1-25a1412 1412 0 0 0-6-112m-6 161c-6 9-14 16-25 22-9 5-10 7-3 3 12-6 23-16 30-27 5-8 3-7-2 2"/>
</svg>
