<svg width="72" height="72" viewBox="0 0 72 72" fill="none" xmlns="http://www.w3.org/2000/svg">
<circle cx="36" cy="36" r="36" fill="#24466B"/>
<path fill-rule="evenodd" clip-rule="evenodd" d="M20.5713 55.443H21.2841L24.3538 58.8323V55.443H24.8482V59.56H24.3538L21.0516 55.8797V59.56H20.5713V55.443ZM26.8269 58.0471L27.9329 55.8353L29.0385 58.0471H26.8269ZM25.5177 59.56H26.0709L26.6083 58.4985H29.2713L29.7948 59.56H30.3622L28.238 55.443H27.6271L25.5177 59.56ZM34.8722 57.8726C34.8722 59.3567 33.7083 59.6625 32.748 59.6625C31.7877 59.6625 30.6235 59.3567 30.6235 57.8726V55.443H31.1185V57.8726C31.1185 58.8181 31.7298 59.2543 32.748 59.2543C33.7521 59.2543 34.3627 58.8181 34.3627 57.8726V55.443H34.8722V57.8726ZM37.4619 55.8797H35.5561V55.443H39.8777V55.8797H37.971V59.56H37.4619V55.8797ZM40.634 55.443H41.1284V59.56H40.634V55.443ZM46.5118 58.4691C46.0601 59.3273 45.3037 59.6625 44.2999 59.6625C42.6993 59.6625 41.9433 58.7163 41.9433 57.5089C41.9433 56.0978 42.9032 55.3414 44.2855 55.3414C45.1731 55.3414 46.0748 55.676 46.4385 56.5198L46.0165 56.7231C45.7252 56.0398 45.0848 55.7632 44.2996 55.7632C43.1207 55.7632 42.4524 56.4029 42.4524 57.5818C42.4524 58.5274 43.0922 59.2257 44.3435 59.2257C45.1581 59.2257 45.7252 58.8911 46.0598 58.2511L46.5118 58.4691ZM47.8935 58.0471L48.9988 55.8353L50.1047 58.0471H47.8935ZM46.5836 59.56H47.1366L47.6751 58.4985H50.3375L50.861 59.56H51.4284L49.3046 55.443H48.6936L46.5836 59.56ZM20.9468 52.25C27.1165 46.3004 34.9022 37.3396 43.6431 24.1921C48.711 16.5533 51.4284 9.42859 51.4284 9.42859C51.4284 9.42859 48.05 20.5932 43.4959 30.2885C35.8571 46.4478 31.597 50.6343 31.597 50.6343L20.9468 52.25Z" fill="white"/>
<path fill-rule="evenodd" clip-rule="evenodd" d="M47.1679 23.3109C47.0214 33.447 44.9649 39.2501 43.7162 41.9675C40.5579 48.8718 38.0603 50.1937 38.0603 50.1937L29.7603 52.2502C29.7603 52.2502 36.5177 48.1369 40.8513 40.939C46.5075 31.611 47.1679 23.3109 47.1679 23.3109Z" fill="white"/>
</svg>
