<svg width="72" height="72" viewBox="0 0 72 72" fill="none" xmlns="http://www.w3.org/2000/svg">
<circle cx="36" cy="36" r="35" fill="white" stroke="black" stroke-width="2"/>
<path fill-rule="evenodd" clip-rule="evenodd" d="M21.4775 41.3056C21.0685 41.3056 20.7484 41.5917 20.7484 42.0092C20.7484 42.4269 21.0702 42.7114 21.4775 42.7114C21.8845 42.7114 22.2066 42.425 22.2066 42.0092C22.2066 41.5917 21.8862 41.3056 21.4775 41.3056ZM21.4775 42.5102C21.1859 42.5102 20.9696 42.2972 20.9696 42.0092C20.9696 41.7214 21.1842 41.5068 21.4775 41.5068C21.7672 41.5068 21.9851 41.7247 21.9851 42.0092C21.9851 42.292 21.7652 42.5102 21.4775 42.5102ZM28.5723 38.8448H25.0228L25.4263 32.6753L23.1213 38.8448H19.8252L25.055 24.9H28.5621L28.1573 31.1541L30.506 24.9H33.8024L28.5723 38.8448ZM29.0005 38.8448L34.23 24.9H37.5261L32.2966 38.8448H29.0005Z" fill="black"/>
<path fill-rule="evenodd" clip-rule="evenodd" d="M19.4451 34.0378C14.8392 39.4468 10.4944 46.6439 14.3322 49.9581C18.0509 53.1698 22.6992 51.2682 25.8685 50.0004C29.0379 48.7326 64.0689 33.5201 64.0689 33.5201C64.407 33.351 64.3438 33.1397 63.9211 33.2452C63.7507 33.2878 25.7842 43.577 25.7842 43.577C20.9663 44.9295 15.473 41.9819 19.4451 34.0378Z" fill="black"/>
<path fill-rule="evenodd" clip-rule="evenodd" d="M21.6014 42.0584C21.7036 42.0535 21.7836 42.0007 21.7836 41.8592C21.7836 41.6767 21.6643 41.6308 21.4651 41.6308H21.1787V42.3874H21.3697V42.0653H21.4019L21.5758 42.3874H21.7954L21.6014 42.0584ZM21.4788 41.9358H21.37V41.7602H21.4618C21.5181 41.7602 21.5827 41.7668 21.5827 41.8402C21.5827 41.9188 21.5453 41.9358 21.4788 41.9358ZM54.6105 24.8572C54.2015 24.8572 53.8813 25.1436 53.8813 25.5607C53.8813 25.9782 54.2034 26.2627 54.6105 26.2627C55.0175 26.2627 55.3396 25.9763 55.3396 25.5607C55.3399 25.1436 55.0197 24.8572 54.6105 24.8572ZM54.6105 26.062C54.3189 26.062 54.1026 25.849 54.1026 25.561C54.1026 25.2733 54.3172 25.0586 54.6105 25.0586C54.9001 25.0586 55.1184 25.2766 55.1184 25.561C55.1184 25.8438 54.8985 26.062 54.6105 26.062Z" fill="black"/>
<path fill-rule="evenodd" clip-rule="evenodd" d="M54.7356 25.6105C54.8378 25.6055 54.9181 25.5528 54.9181 25.4112C54.9181 25.2287 54.7985 25.1828 54.5996 25.1828H54.3132V25.9392H54.5039V25.6173H54.5363L54.71 25.9392H54.9299L54.7356 25.6105ZM54.6127 25.4879H54.5039V25.3123H54.596C54.652 25.3123 54.7169 25.3191 54.7169 25.3925C54.7169 25.4709 54.6793 25.4879 54.6127 25.4879ZM52.4394 27.2243L53.3252 24.9H43.2679L39.8146 29.0835L41.409 24.9H38.0706L32.8828 38.8448H36.1789L38.3938 33.0134L38.5455 38.8448L48.659 38.8228L49.6218 36.1404H45.7766L47.04 32.76H50.2091L51.1842 30.1611H48.0151L49.1015 27.2243H52.4394ZM41.8154 37.915L41.6041 30.6471L46.5876 25.1754L41.8154 37.915Z" fill="black"/>
</svg>
