<svg width="16" height="16" viewBox="0 0 16 16" fill="none" xmlns="http://www.w3.org/2000/svg">
<path d="M8.21796 13.2108C8.0803 13.1441 7.9197 13.1441 7.78204 13.2108L3.90432 15.089C3.54335 15.2638 3.13379 14.9638 3.19158 14.567L3.80255 10.3707C3.8251 10.2157 3.77379 10.0592 3.66391 9.94769L0.672488 6.91194C0.388869 6.62412 0.54612 6.13619 0.944429 6.06814L5.18688 5.34334C5.33899 5.31735 5.47058 5.22258 5.54344 5.08655L7.55924 1.32293C7.74772 0.971023 8.25228 0.971023 8.44076 1.32293L10.4566 5.08655C10.5294 5.22258 10.661 5.31735 10.8131 5.34334L15.0556 6.06814C15.4539 6.13619 15.6111 6.62412 15.3275 6.91194L12.3361 9.94769C12.2262 10.0592 12.1749 10.2157 12.1975 10.3707L12.8084 14.567C12.8662 14.9638 12.4566 15.2638 12.0957 15.089L8.21796 13.2108Z" fill="#F5D54F" stroke="#F5D54F" stroke-width="0.5"/>
</svg>
