<svg width="72" height="72" viewBox="0 0 72 72" fill="none" xmlns="http://www.w3.org/2000/svg">
<circle cx="36" cy="36" r="36" fill="#001C4E"/>
<path fill-rule="evenodd" clip-rule="evenodd" d="M61.6346 52.5165V44.1877H10.2856V52.5165H61.6346Z" fill="#001C4E"/>
<path fill-rule="evenodd" clip-rule="evenodd" d="M16.899 50.1303H16.6269V48.4716H14.2905V50.1303H14.0185V46.6284H14.2905V48.246H16.6269V46.6284H16.899V50.1303ZM21.4947 50.1303H21.2227V46.6284H21.4947V50.1303ZM26.0855 49.9042H27.8159V50.1303H25.8132V46.6284H26.0855V49.9042ZM33.5362 46.854H32.0059V48.1842H33.3874V48.4098H32.0059V50.1303H31.7339V46.6284H33.5362V46.854ZM37.7726 50.1303H37.5001V46.6284H37.7726V50.1303ZM45.0229 47.1881C44.5967 46.9468 44.2011 46.8337 43.7803 46.8337C42.8921 46.8337 42.2347 47.4911 42.2347 48.3794C42.2347 49.1647 42.7532 49.925 43.8569 49.925C44.2629 49.925 44.5404 49.8479 44.8176 49.7095V48.7645H44.0779V48.5388H45.0896V49.8792C44.6735 50.0793 44.2527 50.1767 43.847 50.1767C42.7587 50.1767 41.9424 49.4068 41.9424 48.3695C41.9424 47.3424 42.7384 46.5826 43.8221 46.5826C44.2171 46.5826 44.5302 46.6592 45.0235 46.8801V47.1881H45.0229ZM51.2154 46.854H49.5775V48.2561H51.1742V48.4818H49.5775V49.9042H51.2568V50.1303H49.3052V46.6284H51.2154V46.854ZM55.6055 46.854H56.1754C56.8177 46.854 57.0996 47.142 57.0996 47.537C57.0996 47.9583 56.802 48.2254 56.1855 48.2254H55.6055V46.854ZM55.3338 46.6284V50.1303H55.6055V48.4513H56.0779C56.4993 48.4513 56.6327 48.5076 57.0537 49.1702L57.665 50.1303H57.9834L57.1926 48.9187C57.0279 48.6723 56.8893 48.4716 56.7252 48.3849C57.1718 48.2202 57.3927 47.9377 57.3927 47.5326C57.3927 47.0651 57.0897 46.6287 56.2325 46.6287H55.3338V46.6284ZM10.3203 27.1859V44.1877H35.8422V27.1859H10.3203Z" fill="white"/>
<path fill-rule="evenodd" clip-rule="evenodd" d="M35.842 44.1877H61.6345V45.8039H61.6389V27.1859H35.842V44.1877Z" fill="#B81D37"/>
<path fill-rule="evenodd" clip-rule="evenodd" d="M61.639 27.186V18.8572H10.2898V27.186H61.639Z" fill="#001C4E"/>
<path fill-rule="evenodd" clip-rule="evenodd" d="M16.8791 21.6789H15.5646V24.9549H15.2923V21.6789H13.9778V21.4527H16.8791V21.6789ZM26.764 23.2037C26.764 24.0766 26.0863 24.7493 25.2082 24.7493C24.3301 24.7493 23.6419 24.0766 23.6419 23.2037C23.6419 22.3308 24.3298 21.6583 25.2082 21.6583C26.086 21.6583 26.764 22.3308 26.764 23.2037ZM27.0566 23.2037C27.0566 22.1971 26.24 21.4066 25.198 21.4066C24.1607 21.4066 23.3493 22.1974 23.3493 23.2037C23.3493 24.21 24.1607 25.0008 25.198 25.0008C26.24 25.001 27.0566 24.2102 27.0566 23.2037ZM37.2239 21.4527H37.4961V24.9549H37.2239V21.848H37.2137L35.8887 23.4861L34.5641 21.848H34.5536V24.9549H34.2813V21.4527H34.5536L35.8887 23.0807L37.2239 21.4527ZM47.8065 21.4527H48.0787V24.9549H47.8065V21.848H47.7963L46.4716 23.4861L45.1469 21.848H45.1368V24.9549H44.8645V21.4527H45.1368L46.4716 23.0807L47.8065 21.4527ZM56.685 23.0755V24.9549H56.4127V23.0755L55.0521 21.4527H55.3807L56.5516 22.8392L57.7171 21.4527H58.0457L56.685 23.0755Z" fill="white"/>
</svg>
